<svg width="100" height="87" viewBox="0 0 100 87" fill="none" xmlns="http://www.w3.org/2000/svg">
<path d="M30.5166 47.5022L49.8285 59.2573L48.709 57.578L41.432 47.5022L29.1078 33.306C26.0291 29.9475 22.3906 24.9096 18.4723 20.9912C14.5539 17.0728 15.6828 18.1145 11.7551 16.5131C8.63718 15.2418 4.59004 15.695 2.24842 18.1145C0.611071 19.8064 0.0685189 21.3585 0.00936013 23.7122C-0.070474 26.8885 0.33399 27.3339 2.24843 29.8696C5.66422 34.3939 10.7979 36.2292 15.6828 39.1058C21.1584 42.3302 30.5166 47.5022 30.5166 47.5022Z" fill="url(#paint0_linear_37_55)"/>
<path d="M69.1403 38.9365L49.8284 27.1814L50.9479 28.8607L58.2248 38.9365L71.6498 55.6968C75.5847 59.9596 76.9676 62.9738 81.1659 66.6123C85.3641 70.2507 87.6126 71.2394 91.251 71.5723C94.6041 71.8792 95.0668 70.7437 97.4084 68.3242C99.0458 66.6323 99.8682 65.2496 99.9274 62.896C100.007 59.7197 99.3229 59.1048 97.4084 56.5691C93.9927 52.0448 88.8589 50.2096 83.9741 47.333C78.4984 44.1085 69.1403 38.9365 69.1403 38.9365Z" fill="url(#paint1_linear_37_55)"/>
<path d="M7.00625 16.4353C2.80801 16.9951 0.289062 21.1933 0.289062 21.1933C0.289062 21.1933 2.96187 8.16206 9.24531 3.84061C14.2271 0.414383 18.4418 -0.760727 24.359 0.48201C29.9674 1.6599 36.394 8.8785 36.394 8.8785L73.6184 58.9775C73.6184 58.9775 79.4671 68.4597 85.6533 70.1728C89.2348 71.1646 91.9198 71.9759 95.1693 70.1728C98.4315 68.3628 99.9274 61.4965 99.9274 61.4965C99.9274 61.4965 100.214 64.6285 99.6475 67.6539C99.0587 70.7992 96.009 75.2107 95.1693 76.6101C94.3297 78.0096 89.8304 84.2194 85.6533 85.8463C81.8849 87.314 79.2112 86.8656 75.2977 85.8463C69.1193 84.237 62.4231 75.2107 62.4231 75.2107L23.7992 26.5111L17.3619 18.6744C17.3619 18.6744 11.2372 15.8712 7.00625 16.4353Z" fill="url(#paint2_linear_37_55)"/>
<path d="M30.5166 39.2841L49.8285 27.5291L48.709 29.2083L41.432 39.2841L29.1172 55.7972C25.1823 60.06 23.2396 63.0742 19.0414 66.7127C14.8432 70.3511 14.2484 70.3013 10.6449 70.631C7.29181 70.9379 4.59004 71.0914 2.24842 68.6718C0.611071 66.98 0.068519 65.4279 0.00936025 63.0742C-0.0704738 59.8979 0.33399 59.4525 2.24843 56.9168C5.66422 52.3925 10.7979 50.5572 15.6828 47.6806C21.1584 44.4561 30.5166 39.2841 30.5166 39.2841Z" fill="url(#paint3_linear_37_55)"/>
<path d="M69.1403 47.8499L49.8284 59.605L50.9479 57.9257L58.2248 47.8499L70.5397 31.3368C74.4745 27.0741 76.1374 22.7709 80.3356 19.1324C84.5338 15.4939 87.6126 15.547 91.251 15.2141C94.6041 14.9072 95.0668 16.0426 97.4084 18.4622C99.0458 20.154 99.8682 21.5367 99.9274 23.8904C100.007 27.0667 99.3229 27.6816 97.4084 30.2173C93.9927 34.7416 88.8589 36.5768 83.9741 39.4534C78.4984 42.6779 69.1403 47.8499 69.1403 47.8499Z" fill="url(#paint4_linear_37_55)"/>
<path d="M7.00625 70.351C2.80801 69.7913 0.289062 65.593 0.289062 65.593C0.289062 65.593 2.96187 78.6243 9.24531 82.9458C14.2271 86.372 18.4418 87.5471 24.359 86.3044C29.9674 85.1265 36.394 77.9079 36.394 77.9079L73.6184 27.8088C73.6184 27.8088 79.4671 18.3267 85.6533 16.6135C89.2348 15.6217 91.9198 14.8105 95.1693 16.6135C98.4315 18.4236 99.9274 25.2899 99.9274 25.2899C99.9274 25.2899 100.214 22.1579 99.6475 19.1325C99.0587 15.9872 96.009 11.5756 95.1693 10.1762C94.3297 8.77681 89.8304 2.56695 85.6533 0.940096C81.8849 -0.527601 79.2112 -0.0792382 75.2977 0.940096C69.1193 2.54933 62.4231 11.5756 62.4231 11.5756L23.7992 60.2753L17.3619 68.112C17.3619 68.112 11.2372 70.9152 7.00625 70.351Z" fill="url(#paint5_linear_37_55)"/>
<defs>
<linearGradient id="paint0_linear_37_55" x1="24.9142" y1="59.2573" x2="24.9142" y2="15.8219" gradientUnits="userSpaceOnUse">
<stop stop-color="#032537"/>
<stop offset="1" stop-color="#385C4B"/>
</linearGradient>
<linearGradient id="paint1_linear_37_55" x1="74.881" y1="27.1814" x2="74.881" y2="71.6215" gradientUnits="userSpaceOnUse">
<stop stop-color="#032537"/>
<stop offset="1" stop-color="#385C4B"/>
</linearGradient>
<linearGradient id="paint2_linear_37_55" x1="-6.39708" y1="86.7864" x2="110.522" y2="80.5881" gradientUnits="userSpaceOnUse">
<stop stop-color="#BEE5D3"/>
<stop offset="0.845255" stop-color="#23343D"/>
</linearGradient>
<linearGradient id="paint3_linear_37_55" x1="24.9142" y1="27.5291" x2="24.9142" y2="70.8004" gradientUnits="userSpaceOnUse">
<stop stop-color="#032537"/>
<stop offset="1" stop-color="#385C4B"/>
</linearGradient>
<linearGradient id="paint4_linear_37_55" x1="74.881" y1="59.605" x2="74.881" y2="15.1649" gradientUnits="userSpaceOnUse">
<stop stop-color="#032537"/>
<stop offset="1" stop-color="#385C4B"/>
</linearGradient>
<linearGradient id="paint5_linear_37_55" x1="-6.39708" y1="4.92064e-06" x2="110.522" y2="6.19828" gradientUnits="userSpaceOnUse">
<stop stop-color="#BEE5D3"/>
<stop offset="0.845255" stop-color="#23343D"/>
</linearGradient>
</defs>
</svg>
