<svg width="221" height="59" viewBox="0 0 221 59" fill="none" xmlns="http://www.w3.org/2000/svg">
<path d="M14.7488 31.4867L24.0823 37.168L23.5412 36.3564L20.0243 31.4867L14.0679 24.6256C12.58 23.0024 10.8215 20.5676 8.92772 18.6738C7.03396 16.78 7.57956 17.2835 5.68128 16.5095C4.17438 15.8951 2.21839 16.1141 1.08667 17.2835C0.295333 18.1012 0.0331155 18.8513 0.00452379 19.9889C-0.0340604 21.524 0.161419 21.7392 1.08668 22.9648C2.73754 25.1514 5.21869 26.0384 7.57956 27.4286C10.226 28.987 14.7488 31.4867 14.7488 31.4867Z" fill="url(#paint0_linear_262_5441)"/>
<path d="M33.4158 27.3463L24.0823 21.665L24.6234 22.4767L28.1403 27.3463L34.6287 35.4467C36.5304 37.5069 37.1988 38.9636 39.2278 40.7221C41.2568 42.4806 42.3435 42.9584 44.102 43.1194C45.7226 43.2676 45.9462 42.7189 47.0779 41.5495C47.8693 40.7318 48.2668 40.0636 48.2953 38.926C48.3339 37.3909 48.0032 37.0938 47.0779 35.8682C45.4271 33.6816 42.9459 32.7946 40.585 31.4044C37.9386 29.846 33.4158 27.3463 33.4158 27.3463Z" fill="url(#paint1_linear_262_5441)"/>
<path d="M3.38609 16.4717C1.35707 16.7423 0.139648 18.7713 0.139648 18.7713C0.139648 18.7713 1.43143 12.4732 4.46824 10.3846C6.87595 8.72872 8.91296 8.16079 11.7727 8.76141C14.4833 9.33069 17.5893 12.8195 17.5893 12.8195L35.58 37.0325C35.58 37.0325 38.4067 41.6153 41.3965 42.4433C43.1275 42.9226 44.4252 43.3147 45.9957 42.4433C47.5723 41.5685 48.2952 38.2499 48.2952 38.2499C48.2952 38.2499 48.4337 39.7637 48.16 41.2259C47.8754 42.746 46.4015 44.8781 45.9957 45.5544C45.5899 46.2308 43.4153 49.232 41.3965 50.0183C39.5753 50.7276 38.2831 50.511 36.3916 50.0183C33.4056 49.2406 30.1693 44.8781 30.1693 44.8781L11.5022 21.3414L8.39103 17.5539C8.39103 17.5539 5.4309 16.1991 3.38609 16.4717Z" fill="url(#paint2_linear_262_5441)"/>
<path d="M14.7488 27.5143L24.0823 21.833L23.5412 22.6446L20.0243 27.5143L14.0724 35.4951C12.1707 37.5553 11.2318 39.0121 9.20278 40.7706C7.17376 42.5291 6.88629 42.505 5.14473 42.6644C3.52416 42.8127 2.21839 42.8869 1.08667 41.7175C0.295333 40.8998 0.0331155 40.1497 0.00452385 39.0121C-0.0340603 37.477 0.161419 37.2617 1.08668 36.0362C2.73754 33.8496 5.21869 32.9626 7.57956 31.5723C10.226 30.0139 14.7488 27.5143 14.7488 27.5143Z" fill="url(#paint3_linear_262_5441)"/>
<path d="M33.4158 31.6547L24.0823 37.3359L24.6234 36.5243L28.1403 31.6547L34.0921 23.6738C35.9939 21.6136 36.7975 19.5339 38.8266 17.7754C40.8556 16.0169 42.3435 16.0425 44.102 15.8816C45.7226 15.7333 45.9462 16.2821 47.0779 17.4515C47.8693 18.2691 48.2668 18.9374 48.2953 20.0749C48.3339 21.61 48.0032 21.9072 47.0779 23.1327C45.4271 25.3193 42.9459 26.2063 40.585 27.5966C37.9386 29.155 33.4158 31.6547 33.4158 31.6547Z" fill="url(#paint4_linear_262_5441)"/>
<path d="M3.38609 42.5293C1.35707 42.2587 0.139648 40.2297 0.139648 40.2297C0.139648 40.2297 1.43143 46.5278 4.46824 48.6163C6.87595 50.2723 8.91296 50.8402 11.7727 50.2396C14.4833 49.6703 17.5893 46.1815 17.5893 46.1815L35.58 21.9684C35.58 21.9684 38.4067 17.3857 41.3965 16.5577C43.1275 16.0784 44.4252 15.6863 45.9957 16.5577C47.5723 17.4325 48.2952 20.751 48.2952 20.751C48.2952 20.751 48.4337 19.2373 48.16 17.7751C47.8754 16.255 46.4015 14.1229 45.9957 13.4465C45.5899 12.7702 43.4153 9.76894 41.3965 8.98267C39.5753 8.27333 38.2831 8.49002 36.3916 8.98267C33.4056 9.76042 30.1693 14.1229 30.1693 14.1229L11.5022 37.6596L8.39103 41.4471C8.39103 41.4471 5.4309 42.8019 3.38609 42.5293Z" fill="url(#paint5_linear_262_5441)"/>
<rect x="53.1633" y="25.6338" width="7.73286" height="7.73286" rx="3.86643" fill="#C2EE71"/>
<path d="M101.615 24.4326C101.615 25.7767 101.448 26.9775 101.116 28.0347C100.784 29.0919 100.331 30.0283 99.7569 30.8439C99.1981 31.6444 98.5486 32.3316 97.8086 32.9055C97.0685 33.4794 96.2907 33.9552 95.4751 34.3327C94.6746 34.6952 93.8591 34.9595 93.0284 35.1257C92.2128 35.2918 91.4425 35.3749 90.7176 35.3749L103.019 46H93.9119L81.633 35.3749H77.3965V29.4846H90.7176C91.4576 29.4242 92.1297 29.2731 92.7339 29.0315C93.3531 28.7747 93.8817 28.4349 94.3197 28.012C94.7728 27.5891 95.1202 27.0832 95.3618 26.4942C95.6035 25.89 95.7243 25.2028 95.7243 24.4326V20.7172C95.7243 20.3849 95.679 20.1357 95.5884 19.9695C95.5129 19.7883 95.4071 19.6599 95.2712 19.5844C95.1504 19.4938 95.0145 19.4409 94.8634 19.4258C94.7275 19.4107 94.5991 19.4032 94.4783 19.4032H75.0404V46H69.1501V16.4807C69.1501 16.0729 69.2257 15.6878 69.3767 15.3253C69.5277 14.9628 69.7316 14.6456 69.9884 14.3738C70.2602 14.1019 70.5774 13.8905 70.9399 13.7395C71.3023 13.5884 71.695 13.5129 72.1179 13.5129H94.4783C95.7923 13.5129 96.9024 13.7546 97.8086 14.2379C98.7148 14.7061 99.4473 15.3026 100.006 16.0276C100.58 16.7374 100.988 17.5077 101.229 18.3384C101.486 19.1691 101.615 19.9469 101.615 20.6718V24.4326ZM112.851 16.4807H106.961V11.1568H112.851V16.4807ZM112.851 46H106.961V21.5101H112.851V46ZM141.714 23.3225C141.955 23.8813 142.016 24.4477 141.895 25.0216C141.789 25.5955 141.532 26.0939 141.125 26.5168L127.509 40.1097H141.668V46H120.418C119.814 46 119.263 45.8339 118.764 45.5016C118.281 45.1542 117.919 44.7162 117.677 44.1876C117.45 43.6288 117.39 43.0624 117.496 42.4885C117.616 41.8995 117.896 41.386 118.334 40.948L131.881 27.4003H117.722V21.5101H139.018C139.607 21.5101 140.143 21.6687 140.626 21.9858C141.125 22.303 141.487 22.7485 141.714 23.3225ZM157.187 46H154.559C153.713 46 152.807 45.8565 151.84 45.5696C150.889 45.2826 149.998 44.8144 149.167 44.165C148.336 43.5004 147.649 42.6471 147.106 41.605C146.562 40.5477 146.29 39.2564 146.29 37.731V11.1568H152.18V37.731C152.18 38.4559 152.407 39.0374 152.86 39.4754C153.313 39.8983 153.879 40.1097 154.559 40.1097H157.187V46ZM186.253 37.8896C186.253 38.7051 186.11 39.5887 185.823 40.5402C185.536 41.4766 185.068 42.3526 184.418 43.1681C183.784 43.9686 182.946 44.6407 181.903 45.1844C180.876 45.7281 179.623 46 178.143 46H167.518C166.702 46 165.819 45.8565 164.867 45.5696C163.931 45.2826 163.055 44.8219 162.239 44.1876C161.439 43.5382 160.766 42.6999 160.223 41.6729C159.679 40.6308 159.407 39.3697 159.407 37.8896C159.407 37.074 159.551 36.1904 159.838 35.2389C160.125 34.2874 160.585 33.4114 161.22 32.611C161.869 31.7954 162.707 31.1157 163.734 30.572C164.776 30.0283 166.038 29.7565 167.518 29.7565H178.143V35.3749H167.518C166.717 35.3749 166.098 35.6241 165.66 36.1225C165.222 36.6058 165.003 37.2099 165.003 37.9349C165.003 38.7051 165.252 39.3093 165.751 39.7473C166.264 40.1701 166.868 40.3816 167.563 40.3816H178.143C178.943 40.3816 179.562 40.1399 180 39.6566C180.438 39.1733 180.657 38.5692 180.657 37.8442V29.6205C180.657 28.8503 180.416 28.2386 179.932 27.7855C179.464 27.3324 178.868 27.1058 178.143 27.1058H165.207V21.5101H178.143C178.958 21.5101 179.834 21.6536 180.771 21.9405C181.722 22.2275 182.598 22.6957 183.399 23.3451C184.214 23.9795 184.894 24.8177 185.438 25.8598C185.981 26.8868 186.253 28.1404 186.253 29.6205V37.8896ZM218.446 21.5101L207.866 33.0641L219.782 46H211.672L203.833 37.4591L195.995 46H187.862L199.756 33.0188L189.221 21.5101H197.286L203.788 28.6011L210.335 21.5101H218.446Z" fill="#0D181D"/>
<defs>
<linearGradient id="paint0_linear_262_5441" x1="12.0412" y1="37.168" x2="12.0412" y2="16.1754" gradientUnits="userSpaceOnUse">
<stop stop-color="#032537"/>
<stop offset="1" stop-color="#385C4B"/>
</linearGradient>
<linearGradient id="paint1_linear_262_5441" x1="36.1903" y1="21.665" x2="36.1903" y2="43.1431" gradientUnits="userSpaceOnUse">
<stop stop-color="#032537"/>
<stop offset="1" stop-color="#385C4B"/>
</linearGradient>
<linearGradient id="paint2_linear_262_5441" x1="-3.09179" y1="50.4727" x2="53.4157" y2="47.477" gradientUnits="userSpaceOnUse">
<stop stop-color="#BEE5D3"/>
<stop offset="0.845255" stop-color="#23343D"/>
</linearGradient>
<linearGradient id="paint3_linear_262_5441" x1="12.0412" y1="21.833" x2="12.0412" y2="42.7463" gradientUnits="userSpaceOnUse">
<stop stop-color="#032537"/>
<stop offset="1" stop-color="#385C4B"/>
</linearGradient>
<linearGradient id="paint4_linear_262_5441" x1="36.1903" y1="37.3359" x2="36.1903" y2="15.8579" gradientUnits="userSpaceOnUse">
<stop stop-color="#032537"/>
<stop offset="1" stop-color="#385C4B"/>
</linearGradient>
<linearGradient id="paint5_linear_262_5441" x1="-3.09179" y1="8.52832" x2="53.4157" y2="11.524" gradientUnits="userSpaceOnUse">
<stop stop-color="#BEE5D3"/>
<stop offset="0.845255" stop-color="#23343D"/>
</linearGradient>
</defs>
</svg>
