<svg width="456" height="122" viewBox="0 0 456 122" fill="none" xmlns="http://www.w3.org/2000/svg">
<path d="M30.5166 65.1092L49.8285 76.8643L48.709 75.185L41.432 65.1092L29.1078 50.913C26.0291 47.5544 22.3906 42.5165 18.4723 38.5981C14.5539 34.6798 15.6828 35.7215 11.7551 34.12C8.63718 32.8487 4.59004 33.3019 2.24842 35.7215C0.611071 37.4133 0.0685189 38.9655 0.00936013 41.3191C-0.070474 44.4954 0.33399 44.9408 2.24843 47.4766C5.66422 52.0008 10.7979 53.8361 15.6828 56.7127C21.1584 59.9372 30.5166 65.1092 30.5166 65.1092Z" fill="url(#paint0_linear_37_53)"/>
<path d="M69.1403 56.5434L49.8284 44.7883L50.9479 46.4676L58.2248 56.5434L71.6498 73.3038C75.5847 77.5665 76.9676 80.5807 81.1659 84.2192C85.3641 87.8577 87.6126 88.8463 91.251 89.1793C94.6041 89.4861 95.0668 88.3507 97.4084 85.9311C99.0458 84.2393 99.8682 82.8566 99.9274 80.5029C100.007 77.3266 99.3229 76.7118 97.4084 74.176C93.9927 69.6518 88.8589 67.8165 83.9741 64.9399C78.4984 61.7154 69.1403 56.5434 69.1403 56.5434Z" fill="url(#paint1_linear_37_53)"/>
<path d="M7.00625 34.0423C2.80801 34.602 0.289062 38.8003 0.289062 38.8003C0.289062 38.8003 2.96187 25.769 9.24531 21.4475C14.2271 18.0213 18.4418 16.8462 24.359 18.0889C29.9674 19.2668 36.394 26.4854 36.394 26.4854L73.6184 76.5845C73.6184 76.5845 79.4671 86.0666 85.6533 87.7798C89.2348 88.7716 91.9198 89.5828 95.1693 87.7798C98.4315 85.9697 99.9274 79.1034 99.9274 79.1034C99.9274 79.1034 100.214 82.2354 99.6475 85.2608C99.0587 88.4061 96.009 92.8177 95.1693 94.2171C94.3297 95.6165 89.8304 101.826 85.6533 103.453C81.8849 104.921 79.2112 104.473 75.2977 103.453C69.1193 101.844 62.4231 92.8177 62.4231 92.8177L23.7992 44.1181L17.3619 36.2813C17.3619 36.2813 11.2372 33.4781 7.00625 34.0423Z" fill="url(#paint2_linear_37_53)"/>
<path d="M30.5166 56.8911L49.8285 45.136L48.709 46.8153L41.432 56.8911L29.1172 73.4042C25.1823 77.6669 23.2396 80.6811 19.0414 84.3196C14.8432 87.9581 14.2484 87.9082 10.6449 88.2379C7.29181 88.5448 4.59004 88.6983 2.24842 86.2788C0.611071 84.5869 0.068519 83.0348 0.00936025 80.6811C-0.0704738 77.5049 0.33399 77.0594 2.24843 74.5237C5.66422 69.9994 10.7979 68.1641 15.6828 65.2876C21.1584 62.0631 30.5166 56.8911 30.5166 56.8911Z" fill="url(#paint3_linear_37_53)"/>
<path d="M69.1403 65.4568L49.8284 77.2119L50.9479 75.5326L58.2248 65.4568L70.5397 48.9437C74.4745 44.681 76.1374 40.3778 80.3356 36.7393C84.5338 33.1009 87.6126 33.1539 91.251 32.821C94.6041 32.5141 95.0668 33.6496 97.4084 36.0691C99.0458 37.761 99.8682 39.1437 99.9274 41.4974C100.007 44.6736 99.3229 45.2885 97.4084 47.8242C93.9927 52.3485 88.8589 54.1838 83.9741 57.0603C78.4984 60.2848 69.1403 65.4568 69.1403 65.4568Z" fill="url(#paint4_linear_37_53)"/>
<path d="M7.00625 87.958C2.80801 87.3982 0.289062 83.2 0.289062 83.2C0.289062 83.2 2.96187 96.2312 9.24531 100.553C14.2271 103.979 18.4418 105.154 24.359 103.911C29.9674 102.733 36.394 95.5148 36.394 95.5148L73.6184 45.4158C73.6184 45.4158 79.4671 35.9336 85.6533 34.2205C89.2348 33.2287 91.9198 32.4174 95.1693 34.2205C98.4315 36.0305 99.9274 42.8968 99.9274 42.8968C99.9274 42.8968 100.214 39.7648 99.6475 36.7394C99.0587 33.5941 96.009 29.1826 95.1693 27.7832C94.3297 26.3837 89.8304 20.1739 85.6533 18.547C81.8849 17.0793 79.2112 17.5277 75.2977 18.547C69.1193 20.1563 62.4231 29.1826 62.4231 29.1826L23.7992 77.8822L17.3619 85.7189C17.3619 85.7189 11.2372 88.5221 7.00625 87.958Z" fill="url(#paint5_linear_37_53)"/>
<rect x="110" y="53" width="16" height="16" rx="8" fill="#C2EE71"/>
<path d="M210.25 50.375C210.25 53.1562 209.906 55.6406 209.219 57.8281C208.531 60.0156 207.594 61.9531 206.406 63.6406C205.25 65.2969 203.906 66.7188 202.375 67.9062C200.844 69.0938 199.234 70.0781 197.547 70.8594C195.891 71.6094 194.203 72.1562 192.484 72.5C190.797 72.8438 189.203 73.0156 187.703 73.0156L213.156 95H194.312L168.906 73.0156H160.141V60.8281H187.703C189.234 60.7031 190.625 60.3906 191.875 59.8906C193.156 59.3594 194.25 58.6562 195.156 57.7812C196.094 56.9062 196.812 55.8594 197.312 54.6406C197.812 53.3906 198.062 51.9688 198.062 50.375V42.6875C198.062 42 197.969 41.4844 197.781 41.1406C197.625 40.7656 197.406 40.5 197.125 40.3438C196.875 40.1562 196.594 40.0469 196.281 40.0156C196 39.9844 195.734 39.9688 195.484 39.9688H155.266V95H143.078V33.9219C143.078 33.0781 143.234 32.2812 143.547 31.5312C143.859 30.7812 144.281 30.125 144.812 29.5625C145.375 29 146.031 28.5625 146.781 28.25C147.531 27.9375 148.344 27.7812 149.219 27.7812H195.484C198.203 27.7812 200.5 28.2813 202.375 29.2812C204.25 30.25 205.766 31.4844 206.922 32.9844C208.109 34.4531 208.953 36.0469 209.453 37.7656C209.984 39.4844 210.25 41.0938 210.25 42.5938V50.375ZM233.5 33.9219H221.312V22.9062H233.5V33.9219ZM233.5 95H221.312V44.3281H233.5V95ZM293.219 48.0781C293.719 49.2344 293.844 50.4062 293.594 51.5938C293.375 52.7812 292.844 53.8125 292 54.6875L263.828 82.8125H293.125V95H249.156C247.906 95 246.766 94.6562 245.734 93.9688C244.734 93.25 243.984 92.3438 243.484 91.25C243.016 90.0938 242.891 88.9219 243.109 87.7344C243.359 86.5156 243.938 85.4531 244.844 84.5469L272.875 56.5156H243.578V44.3281H287.641C288.859 44.3281 289.969 44.6562 290.969 45.3125C292 45.9688 292.75 46.8906 293.219 48.0781ZM325.234 95H319.797C318.047 95 316.172 94.7031 314.172 94.1094C312.203 93.5156 310.359 92.5469 308.641 91.2031C306.922 89.8281 305.5 88.0625 304.375 85.9062C303.25 83.7188 302.688 81.0469 302.688 77.8906V22.9062H314.875V77.8906C314.875 79.3906 315.344 80.5938 316.281 81.5C317.219 82.375 318.391 82.8125 319.797 82.8125H325.234V95ZM385.375 78.2188C385.375 79.9062 385.078 81.7344 384.484 83.7031C383.891 85.6406 382.922 87.4531 381.578 89.1406C380.266 90.7969 378.531 92.1875 376.375 93.3125C374.25 94.4375 371.656 95 368.594 95H346.609C344.922 95 343.094 94.7031 341.125 94.1094C339.188 93.5156 337.375 92.5625 335.688 91.25C334.031 89.9062 332.641 88.1719 331.516 86.0469C330.391 83.8906 329.828 81.2812 329.828 78.2188C329.828 76.5312 330.125 74.7031 330.719 72.7344C331.312 70.7656 332.266 68.9531 333.578 67.2969C334.922 65.6094 336.656 64.2031 338.781 63.0781C340.938 61.9531 343.547 61.3906 346.609 61.3906H368.594V73.0156H346.609C344.953 73.0156 343.672 73.5312 342.766 74.5625C341.859 75.5625 341.406 76.8125 341.406 78.3125C341.406 79.9062 341.922 81.1562 342.953 82.0625C344.016 82.9375 345.266 83.375 346.703 83.375H368.594C370.25 83.375 371.531 82.875 372.438 81.875C373.344 80.875 373.797 79.625 373.797 78.125V61.1094C373.797 59.5156 373.297 58.25 372.297 57.3125C371.328 56.375 370.094 55.9062 368.594 55.9062H341.828V44.3281H368.594C370.281 44.3281 372.094 44.625 374.031 45.2188C376 45.8125 377.812 46.7812 379.469 48.125C381.156 49.4375 382.562 51.1719 383.688 53.3281C384.812 55.4531 385.375 58.0469 385.375 61.1094V78.2188ZM451.984 44.3281L430.094 68.2344L454.75 95H437.969L421.75 77.3281L405.531 95H388.703L413.312 68.1406L391.516 44.3281H408.203L421.656 59L435.203 44.3281H451.984Z" fill="white"/>
<defs>
<linearGradient id="paint0_linear_37_53" x1="24.9142" y1="76.8643" x2="24.9142" y2="33.4288" gradientUnits="userSpaceOnUse">
<stop stop-color="#032537"/>
<stop offset="1" stop-color="#385C4B"/>
</linearGradient>
<linearGradient id="paint1_linear_37_53" x1="74.881" y1="44.7883" x2="74.881" y2="89.2284" gradientUnits="userSpaceOnUse">
<stop stop-color="#032537"/>
<stop offset="1" stop-color="#385C4B"/>
</linearGradient>
<linearGradient id="paint2_linear_37_53" x1="-6.39708" y1="104.393" x2="110.522" y2="98.195" gradientUnits="userSpaceOnUse">
<stop stop-color="#BEE5D3"/>
<stop offset="0.845255" stop-color="#23343D"/>
</linearGradient>
<linearGradient id="paint3_linear_37_53" x1="24.9142" y1="45.136" x2="24.9142" y2="88.4074" gradientUnits="userSpaceOnUse">
<stop stop-color="#032537"/>
<stop offset="1" stop-color="#385C4B"/>
</linearGradient>
<linearGradient id="paint4_linear_37_53" x1="74.881" y1="77.2119" x2="74.881" y2="32.7718" gradientUnits="userSpaceOnUse">
<stop stop-color="#032537"/>
<stop offset="1" stop-color="#385C4B"/>
</linearGradient>
<linearGradient id="paint5_linear_37_53" x1="-6.39708" y1="17.6069" x2="110.522" y2="23.8052" gradientUnits="userSpaceOnUse">
<stop stop-color="#BEE5D3"/>
<stop offset="0.845255" stop-color="#23343D"/>
</linearGradient>
</defs>
</svg>
