<svg width="48" height="35" viewBox="0 0 48 35" fill="none" xmlns="http://www.w3.org/2000/svg">
<path d="M45.9073 8.89345L25.8193 0.393448C25.202 0.133766 24.539 0 23.8693 0C23.1996 0 22.5366 0.133766 21.9193 0.393448L1.83131 8.89345C1.28835 9.12311 0.825091 9.50765 0.499394 9.99905C0.173696 10.4904 0 11.0669 0 11.6564C0 12.246 0.173696 12.8224 0.499394 13.3138C0.825091 13.8052 1.28835 14.1898 1.83131 14.4194L8.87131 17.3964V26.9694C8.8659 27.829 9.08434 28.6752 9.50515 29.4248C9.92596 30.1744 10.5346 30.8015 11.2713 31.2444C15.0942 33.4796 19.4429 34.6575 23.8713 34.6575C28.2997 34.6575 32.6484 33.4796 36.4713 31.2444C37.208 30.8015 37.8167 30.1744 38.2375 29.4248C38.6583 28.6752 38.8767 27.829 38.8713 26.9694V17.3964L41.8713 16.1264V20.8684C41.4696 21.0424 41.1209 21.3192 40.8603 21.671C40.5998 22.0228 40.4367 22.4371 40.3875 22.872C40.3383 23.307 40.4048 23.7473 40.5801 24.1484C40.7555 24.5495 41.0336 24.8972 41.3863 25.1564C41.0725 25.3872 40.8173 25.6884 40.641 26.0358C40.4647 26.3831 40.3723 26.7669 40.3713 27.1564V29.6564C40.3713 29.9217 40.4767 30.176 40.6642 30.3636C40.8517 30.5511 41.1061 30.6564 41.3713 30.6564H44.3713C44.6365 30.6564 44.8909 30.5511 45.0784 30.3636C45.266 30.176 45.3713 29.9217 45.3713 29.6564V27.1564C45.3703 26.7669 45.2779 26.3831 45.1016 26.0358C44.9254 25.6884 44.6701 25.3872 44.3563 25.1564C44.709 24.8972 44.9871 24.5495 45.1625 24.1484C45.3379 23.7473 45.4043 23.307 45.3551 22.872C45.3059 22.4371 45.1428 22.0228 44.8823 21.671C44.6218 21.3192 44.273 21.0424 43.8713 20.8684V15.2804L45.9073 14.4194C46.4503 14.1898 46.9135 13.8052 47.2392 13.3138C47.5649 12.8224 47.7386 12.246 47.7386 11.6564C47.7386 11.0669 47.5649 10.4904 47.2392 9.99905C46.9135 9.50765 46.4503 9.12311 45.9073 8.89345ZM43.3713 23.1564C43.3713 23.2553 43.342 23.352 43.287 23.4342C43.2321 23.5165 43.154 23.5805 43.0627 23.6184C42.9713 23.6562 42.8708 23.6661 42.7738 23.6468C42.6768 23.6275 42.5877 23.5799 42.5178 23.51C42.4478 23.4401 42.4002 23.351 42.3809 23.254C42.3616 23.157 42.3715 23.0565 42.4094 22.9651C42.4472 22.8737 42.5113 22.7957 42.5935 22.7407C42.6758 22.6858 42.7724 22.6564 42.8713 22.6564C43.0039 22.6564 43.1311 22.7091 43.2249 22.8029C43.3186 22.8967 43.3713 23.0238 43.3713 23.1564ZM43.3713 28.6564H42.3713V27.1564C42.3713 27.0238 42.424 26.8967 42.5178 26.8029C42.6115 26.7091 42.7387 26.6564 42.8713 26.6564C43.0039 26.6564 43.1311 26.7091 43.2249 26.8029C43.3186 26.8967 43.3713 27.0238 43.3713 27.1564V28.6564ZM36.8713 26.9694C36.8771 27.4809 36.7497 27.985 36.5016 28.4323C36.2535 28.8796 35.8933 29.2546 35.4563 29.5204C31.9409 31.5741 27.9427 32.6564 23.8713 32.6564C19.8 32.6564 15.8018 31.5741 12.2863 29.5204C11.8494 29.2546 11.4891 28.8796 11.241 28.4323C10.9929 27.985 10.8655 27.4809 10.8713 26.9694V18.2424L21.9233 22.9184C22.5406 23.1784 23.2036 23.3123 23.8733 23.3123C24.5431 23.3123 25.2061 23.1784 25.8233 22.9184L36.8713 18.2424V26.9694ZM45.1283 12.5774L25.0403 21.0774C24.6702 21.2329 24.2728 21.313 23.8713 21.313C23.4699 21.313 23.0724 21.2329 22.7023 21.0774L2.61431 12.5774C2.43333 12.5009 2.27891 12.3727 2.17034 12.2089C2.06177 12.0451 2.00388 11.853 2.00388 11.6564C2.00388 11.4599 2.06177 11.2678 2.17034 11.104C2.27891 10.9402 2.43333 10.812 2.61431 10.7354L22.7023 2.23545C23.0724 2.07967 23.4698 1.99943 23.8713 1.99943C24.2728 1.99943 24.6703 2.07967 25.0403 2.23545L45.1283 10.7354C45.3093 10.812 45.4637 10.9402 45.5723 11.104C45.6809 11.2678 45.7388 11.4599 45.7388 11.6564C45.7388 11.853 45.6809 12.0451 45.5723 12.2089C45.4637 12.3727 45.3093 12.5009 45.1283 12.5774Z" fill="url(#paint0_linear_425_2323)"/>
<defs>
<linearGradient id="paint0_linear_425_2323" x1="46.1417" y1="17.3287" x2="2.93253" y2="16.9848" gradientUnits="userSpaceOnUse">
<stop stop-color="#23343D"/>
<stop offset="0.495192" stop-color="#598671"/>
<stop offset="0.966346" stop-color="#23343D"/>
</linearGradient>
</defs>
</svg>
