<svg width="88" height="88" viewBox="0 0 88 88" fill="none" xmlns="http://www.w3.org/2000/svg">
<g clip-path="url(#clip0_586_1729)">
<path d="M85.0722 20.16C83.3156 18.3197 80.8897 17.2323 78.1293 17.2323H64.2433V17.065C64.2433 14.9737 63.4068 12.9661 61.9848 11.6277C60.5627 10.2056 58.6388 9.36914 56.5475 9.36914H31.4525C29.2776 9.36914 27.3536 10.2056 25.9316 11.6277C24.5095 13.0497 23.673 14.9737 23.673 17.065V17.2323H9.87072C7.11027 17.2323 4.68441 18.3197 2.92776 20.16C1.1711 21.9167 0 24.4262 0 27.103V68.7608C0 71.5212 1.08745 73.9471 2.92776 75.7037C4.68441 77.4604 7.19392 78.6315 9.87072 78.6315H78.1293C80.8897 78.6315 83.3156 77.544 85.0722 75.7037C86.8289 73.9471 88 71.4376 88 68.7608V27.103C88 24.3425 86.9125 21.9167 85.0722 20.16ZM83.6502 68.7608H83.5665C83.5665 70.2665 82.981 71.6049 81.9772 72.6087C80.9734 73.6125 79.635 74.198 78.1293 74.198H9.87072C8.36502 74.198 7.02662 73.6125 6.02281 72.6087C5.01901 71.6049 4.43346 70.2665 4.43346 68.7608V27.103C4.43346 25.5973 5.01901 24.2589 6.02281 23.2551C7.02662 22.2513 8.36502 21.6657 9.87072 21.6657H26.0152C27.27 21.6657 28.2738 20.6619 28.2738 19.4072V16.9813C28.2738 16.0612 28.6084 15.2247 29.1939 14.6391C29.7795 14.0536 30.616 13.719 31.5361 13.719H56.5475C57.4677 13.719 58.3042 14.0536 58.8897 14.6391C59.4753 15.2247 59.8099 16.0612 59.8099 16.9813V19.4072C59.8099 20.6619 60.8137 21.6657 62.0684 21.6657H78.2129C79.7186 21.6657 81.057 22.2513 82.0608 23.2551C83.0646 24.2589 83.6502 25.5973 83.6502 27.103V68.7608Z" fill="#525252"/>
<path d="M44.0001 27.3535C38.3119 27.3535 33.1255 29.6957 29.4449 33.3763C25.6807 37.1406 23.4221 42.2432 23.4221 47.9315C23.4221 53.6197 25.7643 58.806 29.4449 62.4866C33.2092 66.2509 38.3119 68.5094 44.0001 68.5094C49.6883 68.5094 54.8746 66.1672 58.5552 62.4866C62.3195 58.7223 64.578 53.6197 64.578 47.9315C64.578 42.2432 62.2358 37.0569 58.5552 33.3763C54.8746 29.6957 49.6883 27.3535 44.0001 27.3535ZM55.3765 59.3915C52.4487 62.2356 48.4335 64.0759 44.0001 64.0759C39.5666 64.0759 35.5514 62.2356 32.6236 59.3915C29.6959 56.4638 27.9392 52.4486 27.9392 48.0151C27.9392 43.5817 29.7795 39.5664 32.6236 36.6387C35.5514 33.7109 39.5666 31.9543 44.0001 31.9543C48.4335 31.9543 52.4487 33.7946 55.3765 36.6387C58.3042 39.5664 60.0609 43.5817 60.0609 48.0151C60.1446 52.4486 58.3042 56.4638 55.3765 59.3915Z" fill="#525252"/>
<path d="M73.7793 35.4692C76.043 35.4692 77.8781 33.6341 77.8781 31.3703C77.8781 29.1066 76.043 27.2715 73.7793 27.2715C71.5155 27.2715 69.6804 29.1066 69.6804 31.3703C69.6804 33.6341 71.5155 35.4692 73.7793 35.4692Z" fill="#525252"/>
</g>
<defs>
<clipPath id="clip0_586_1729">
<rect width="88" height="88" fill="white"/>
</clipPath>
</defs>
</svg>
