<svg width="24" height="24" viewBox="0 0 24 24" fill="none" xmlns="http://www.w3.org/2000/svg">
<g clip-path="url(#clip0_426_1279)">
<path fill-rule="evenodd" clip-rule="evenodd" d="M11.9998 2.20312C6.59803 2.20312 2.20308 6.59808 2.20308 11.9999C2.20308 17.4018 6.59803 21.7968 11.9998 21.7968C17.4016 21.7968 21.7963 17.4018 21.7963 11.9999C21.7964 6.59808 17.4016 2.20312 11.9998 2.20312ZM11.9998 23.2969C8.98256 23.2969 6.14573 22.1217 4.01189 19.988C1.87805 17.8542 0.703125 15.0173 0.703125 11.9999C0.703125 8.98256 1.87805 6.14522 4.01194 4.01198C6.14578 1.87823 8.98256 0.703125 11.9998 0.703125C15.0173 0.703125 17.8541 1.87823 19.9877 4.01198C22.1216 6.14527 23.2968 8.98261 23.2968 11.9999C23.2968 15.0173 22.1216 17.8542 19.9877 19.9879C17.8541 22.1217 15.0173 23.2969 11.9998 23.2969Z" fill="url(#paint0_linear_426_1279)"/>
<path fill-rule="evenodd" clip-rule="evenodd" d="M10.6799 15.3899C10.5814 15.39 10.4839 15.3706 10.3929 15.3329C10.302 15.2952 10.2193 15.2398 10.1498 15.1701L7.50934 12.5301C7.21637 12.2371 7.21637 11.7623 7.50934 11.4694C7.80231 11.1769 8.2771 11.1769 8.57007 11.4694L10.6799 13.5792L15.4298 8.82936C15.7228 8.53686 16.1976 8.53686 16.4905 8.82936C16.783 9.12233 16.783 9.59717 16.4905 9.89009L11.2101 15.1701C11.1405 15.2398 11.0579 15.2952 10.9669 15.3329C10.8759 15.3706 10.7784 15.39 10.6799 15.3899Z" fill="url(#paint1_linear_426_1279)"/>
</g>
<defs>
<linearGradient id="paint0_linear_426_1279" x1="22.541" y1="12" x2="2.09042" y2="11.8818" gradientUnits="userSpaceOnUse">
<stop stop-color="#23343D"/>
<stop offset="0.495192" stop-color="#598671"/>
<stop offset="0.966346" stop-color="#23343D"/>
</linearGradient>
<linearGradient id="paint1_linear_426_1279" x1="16.3948" y1="12" x2="7.8683" y2="11.9315" gradientUnits="userSpaceOnUse">
<stop stop-color="#23343D"/>
<stop offset="0.495192" stop-color="#598671"/>
<stop offset="0.966346" stop-color="#23343D"/>
</linearGradient>
<clipPath id="clip0_426_1279">
<rect width="24" height="24" fill="white"/>
</clipPath>
</defs>
</svg>
