<svg width="48" height="48" viewBox="0 0 48 48" fill="none" xmlns="http://www.w3.org/2000/svg">
<g clip-path="url(#clip0_319_75)">
<path fill-rule="evenodd" clip-rule="evenodd" d="M36.8084 29.4972C36.5835 29.4972 36.3585 29.4128 36.2179 29.1879L34.5308 26.8258L32.7592 29.216C32.1968 29.9752 31.0439 29.1035 31.6063 28.3443L33.6591 25.5886L31.6626 22.8047C31.1002 22.0455 32.2812 21.1738 32.8436 21.9611L34.5589 24.3794L36.3023 22.0455C36.8647 21.2863 38.0176 22.158 37.4552 22.9172L35.4587 25.6167L37.3989 28.3443C37.7364 28.8223 37.3708 29.4972 36.8084 29.4972ZM37.9051 12.4286H10.0668C9.13884 12.4286 9.13884 10.9945 10.0668 10.9945H37.9051C38.8612 10.9945 38.8612 12.4286 37.9051 12.4286ZM37.9051 16.506H10.0668C9.13884 16.506 9.13884 15.0437 10.0668 15.0437H37.9051C38.8612 15.0437 38.8612 16.506 37.9051 16.506ZM43.1634 36.6676V11.0789C43.1634 7.14216 40.8858 3.96466 38.1019 3.96466H9.89807C7.08612 3.96466 4.83656 7.14216 4.83656 11.0789V36.6676H19.8805L19.9086 36.6958H19.9649L19.993 36.7239H20.0492V36.752H20.0773L20.1054 36.7801H20.1336L20.1617 36.8082L20.1898 36.8364H20.2179V36.8645H20.246C20.246 36.8926 20.4429 37.1738 20.4429 37.3987V39.564H27.529V37.3987C27.529 36.8645 27.8102 36.8364 28.1195 36.6676H28.2882H43.1634ZM3.37434 36.6676V11.0789C3.37434 6.35481 6.29877 2.50244 9.89807 2.50244H38.1019C41.7012 2.50244 44.6257 6.35481 44.6257 11.0789V36.6676H47.2689C47.6626 36.6676 48 36.977 48 37.3987C48 41.8416 44.3726 45.469 39.9016 45.469H8.09842C3.62742 45.469 0 41.8416 0 37.3987C0 36.977 0.337434 36.6676 0.731107 36.6676H3.37434ZM19.0088 38.1017H1.49033C1.85589 41.4198 4.66784 44.035 8.09842 44.035H39.9016C43.304 44.035 46.1441 41.4198 46.5097 38.1017H28.9912V40.2951C28.9912 40.6887 28.6538 41.0262 28.2601 41.0262H19.7118C19.3181 41.0262 19.0088 40.7169 19.0088 40.2951V38.1017ZM20.2742 31.0719C19.7961 31.0719 19.4306 30.6219 19.5712 30.1439L22.2425 20.1334C22.4956 19.2335 23.9016 19.6272 23.6485 20.527L20.9772 30.5376C20.8928 30.8469 20.5835 31.0719 20.2742 31.0719ZM27.4165 29.5253C25.8137 29.5253 24.6046 28.4849 24.6889 26.8258V22.3548C24.6889 21.4269 26.123 21.4269 26.123 22.3548C26.123 23.2546 26.1793 26.2915 26.123 26.9383C25.9824 28.4567 28.8225 28.4567 28.6819 26.9383C28.6257 26.3197 28.6819 23.2265 28.6819 22.3548C28.6819 21.4269 30.1441 21.4269 30.1441 22.3548V26.8258C30.2004 28.4849 28.9912 29.5253 27.4165 29.5253ZM13.1318 29.0473C11.529 29.0473 10.3199 28.0068 10.4042 26.3478V21.8768C10.4042 20.9488 11.8383 20.9488 11.8383 21.8768C11.8383 22.8047 11.8946 25.7573 11.8383 26.4603C11.7258 27.9787 14.5378 27.9787 14.3972 26.4603C14.3409 25.7573 14.3972 22.8047 14.3972 21.8768C14.3972 20.9488 15.8594 20.9488 15.8594 21.8768V26.3478C15.9156 28.0068 14.7065 29.0473 13.1318 29.0473ZM17.9965 29.0191C17.6028 29.0191 17.2654 28.7098 17.2654 28.288V21.9049C17.2654 20.9488 18.7276 20.9488 18.7276 21.9049V28.288C18.7276 28.7098 18.3902 29.0191 17.9965 29.0191Z" fill="#C2EE71"/>
</g>
<defs>
<clipPath id="clip0_319_75">
<rect width="48" height="48" fill="white"/>
</clipPath>
</defs>
</svg>
