<svg width="48" height="48" viewBox="0 0 48 48" fill="none" xmlns="http://www.w3.org/2000/svg">
<path d="M24.0003 0.922852C11.2437 0.922852 0.92334 11.2778 0.92334 23.9998C0.92334 36.6923 11.2064 47.0767 24.0003 47.0767C36.7525 47.0767 47.0772 36.7249 47.0772 23.9998C47.0772 11.2861 36.7629 0.922852 24.0003 0.922852ZM40.296 37.6069C38.4897 36.6786 36.4427 35.9533 34.4534 35.437C35.3856 32.2563 35.9153 28.6675 35.9902 24.9229H45.2109C45.0094 29.5798 43.2867 34.0291 40.296 37.6069ZM7.70445 37.6069C4.71386 34.029 2.99112 29.5798 2.78952 24.9229H12.0102C12.0852 28.6675 12.6149 32.2563 13.5471 35.437C11.5559 35.9545 9.54322 36.6656 7.70445 37.6069ZM7.70445 10.3925C9.54026 11.333 11.5588 12.045 13.5471 12.5626C12.6149 15.7432 12.0852 19.332 12.0102 23.0767H2.78952C2.99112 18.4197 4.71386 13.9705 7.70445 10.3925ZM33.8829 10.8062C32.9482 8.20057 31.5572 5.47934 29.611 3.52694C33.1336 4.49451 36.3784 6.3619 38.9986 8.97559C37.397 9.74857 35.5599 10.387 33.8829 10.8062ZM24.9233 11.9891V2.86011C27.1775 3.30181 29.3099 5.35261 31.0072 8.7475C31.3954 9.52399 31.75 10.3505 32.0701 11.2193C29.7172 11.6915 27.3036 11.9387 24.9233 11.9891ZM23.0772 11.9891C20.6767 11.9383 18.2565 11.687 15.9304 11.2193C16.2505 10.3504 16.6051 9.5239 16.9933 8.7475C18.6907 5.35261 20.823 3.30171 23.0772 2.86011V11.9891ZM23.0772 13.8356V23.0767H13.8567C13.9315 19.4646 14.445 16.0167 15.3461 12.9819C17.7372 13.4768 20.3535 13.7802 23.0772 13.8356ZM23.0772 24.9229V34.164C20.5047 34.2163 17.8554 34.4962 15.3462 35.0176C14.445 31.9828 13.9315 28.5349 13.8567 24.9229H23.0772ZM23.0772 36.0105V45.1394C20.823 44.6977 18.6907 42.6469 16.9933 39.2521C16.605 38.4756 16.2505 37.649 15.9304 36.7802C18.1669 36.3288 20.6006 36.0629 23.0772 36.0105ZM24.9233 36.0105C27.3942 36.0627 29.818 36.3265 32.0701 36.7802C31.75 37.649 31.3954 38.4756 31.0072 39.2521C29.3098 42.6469 27.1775 44.6977 24.9233 45.1394V36.0105ZM24.9233 34.164V24.9229H34.144C34.069 28.5349 33.5556 31.9828 32.6543 35.0176C30.2774 34.524 27.6435 34.2193 24.9233 34.164ZM24.9233 23.0767V13.8356C27.6777 13.7796 30.2839 13.4718 32.6544 12.9819C33.5556 16.0166 34.069 19.4646 34.144 23.0767H24.9233ZM14.1176 10.8062C12.3868 10.3692 10.6043 9.75014 9.00183 8.97559C11.6222 6.3619 14.867 4.49451 18.3896 3.52694C16.4404 5.48221 15.05 8.20694 14.1176 10.8062ZM14.1176 37.1933C15.0496 39.792 16.4403 42.5173 18.3896 44.4726C14.867 43.505 11.6222 41.6376 9.00183 39.024C10.6067 38.2478 12.3901 37.6317 14.1176 37.1933ZM33.8828 37.1933C35.537 37.6068 37.3977 38.2492 38.9987 39.024C36.3784 41.6376 33.1336 43.505 29.611 44.4726C31.5602 42.5172 32.951 39.7918 33.8828 37.1933ZM35.9903 23.0767C35.9153 19.332 35.3856 15.7432 34.4535 12.5626C36.476 12.0373 38.5015 11.3128 40.2961 10.3926C43.2867 13.9705 45.0095 18.4198 45.211 23.0768H35.9903V23.0767Z" fill="#C2EE71"/>
</svg>
