<svg width="48" height="48" viewBox="0 0 48 48" fill="none" xmlns="http://www.w3.org/2000/svg">
<path d="M7.16859 14.3399C8.94347 14.3399 10.5685 13.6898 11.8219 12.6171L14.6478 15.4453C14.7576 15.5552 14.9015 15.6101 15.0454 15.6101C15.1893 15.6101 15.3329 15.5553 15.4427 15.4457C15.4949 15.3935 15.5363 15.3316 15.5646 15.2634C15.5929 15.1952 15.6075 15.1221 15.6075 15.0483C15.6075 14.9745 15.593 14.9014 15.5648 14.8332C15.5365 14.765 15.4952 14.703 15.443 14.6508L12.6164 11.8219C13.6879 10.5683 14.3371 8.94337 14.3371 7.16859C14.3371 3.21581 11.1213 0 7.16859 0C3.21591 0 0 3.21591 0 7.16869C0 11.1215 3.21591 14.3399 7.16859 14.3399ZM7.16859 1.12416C10.5015 1.12416 13.213 3.83569 13.213 7.16869C13.213 10.5017 10.5015 13.2158 7.16859 13.2158C3.83569 13.2158 1.12416 10.5031 1.12416 7.16869C1.12416 3.83428 3.83559 1.12416 7.16859 1.12416ZM3.83475 4.69716C3.83474 4.62335 3.84927 4.55026 3.87751 4.48206C3.90575 4.41387 3.94715 4.3519 3.99934 4.29971C4.05153 4.24752 4.11349 4.20612 4.18169 4.17788C4.24988 4.14964 4.32297 4.13511 4.39678 4.13512H9.94031C10.0894 4.13512 10.2323 4.19434 10.3377 4.29974C10.4431 4.40514 10.5023 4.5481 10.5023 4.69716C10.5023 4.84622 10.4431 4.98917 10.3377 5.09457C10.2323 5.19997 10.0894 5.25919 9.94031 5.25919H4.39678C4.24772 5.25919 4.10477 5.19997 3.99937 5.09457C3.89396 4.98917 3.83475 4.84622 3.83475 4.69716ZM3.83475 9.64013C3.83474 9.56631 3.84927 9.49322 3.87751 9.42503C3.90575 9.35684 3.94715 9.29487 3.99934 9.24268C4.05153 9.19049 4.11349 9.14909 4.18169 9.12085C4.24988 9.09261 4.32297 9.07808 4.39678 9.07809H9.94031C10.0894 9.07809 10.2323 9.13731 10.3377 9.24271C10.4431 9.34811 10.5023 9.49107 10.5023 9.64013C10.5023 9.78919 10.4431 9.93214 10.3377 10.0375C10.2323 10.1429 10.0894 10.2022 9.94031 10.2022H4.39678C4.24772 10.2022 4.10477 10.1429 3.99937 10.0375C3.89396 9.93214 3.83475 9.78919 3.83475 9.64013ZM3.83475 7.16869C3.83474 7.09488 3.84927 7.02179 3.87751 6.95359C3.90575 6.8854 3.94715 6.82344 3.99934 6.77124C4.05153 6.71905 4.11349 6.67765 4.18169 6.64941C4.24988 6.62117 4.32297 6.60664 4.39678 6.60666H9.94031C10.0141 6.60666 10.0872 6.62119 10.1554 6.64944C10.2236 6.67768 10.2855 6.71908 10.3377 6.77127C10.3899 6.82346 10.4313 6.88542 10.4596 6.95361C10.4878 7.0218 10.5023 7.09488 10.5023 7.16869C10.5023 7.24249 10.4878 7.31558 10.4596 7.38377C10.4313 7.45196 10.3899 7.51391 10.3377 7.5661C10.2855 7.61829 10.2236 7.65969 10.1554 7.68794C10.0872 7.71618 10.0141 7.73072 9.94031 7.73072H4.39678C4.24772 7.73072 4.10477 7.6715 3.99937 7.5661C3.89396 7.4607 3.83475 7.31775 3.83475 7.16869ZM9.86016 37.5851C9.58294 37.4329 9.44194 37.1941 9.2925 36.9414C9.05878 36.5457 8.6235 35.8094 7.53722 36.2813C7.43678 36.325 7.35128 36.3971 7.29123 36.4886C7.23117 36.5802 7.19917 36.6874 7.19916 36.7969V40.1224C6.90784 39.9722 6.58481 39.894 6.25706 39.8942C5.11772 39.8942 4.19081 40.8211 4.19081 41.9604C4.19081 43.0998 5.11772 44.0266 6.25706 44.0266C7.39641 44.0266 8.32322 43.0997 8.32322 41.9604V37.5107L8.32472 37.5131C8.51344 37.8324 8.77181 38.2698 9.31894 38.5703C9.38363 38.6059 9.4547 38.6283 9.52806 38.6364C9.60143 38.6445 9.67567 38.638 9.74654 38.6174C9.81742 38.5967 9.88353 38.5624 9.94112 38.5162C9.9987 38.47 10.0466 38.4129 10.0822 38.3483C10.1177 38.2836 10.1401 38.2125 10.1482 38.1391C10.1563 38.0658 10.1498 37.9915 10.1292 37.9206C10.1086 37.8498 10.0742 37.7837 10.028 37.7261C9.98182 37.6685 9.92476 37.6206 9.86006 37.585L9.86016 37.5851ZM6.25706 42.9025C5.73759 42.9025 5.31497 42.4799 5.31497 41.9604C5.31497 41.441 5.73759 41.0183 6.25706 41.0183C6.77653 41.0183 7.19916 41.441 7.19916 41.9604C7.19916 42.4799 6.77653 42.9025 6.25706 42.9025ZM37.8681 10.4893C38.0432 10.5927 38.2428 10.6474 38.4461 10.6478C38.6489 10.6473 38.8479 10.5932 39.023 10.491L43.0439 8.17097C43.4046 7.96266 43.6199 7.58897 43.6199 7.17131C43.6199 6.75366 43.4047 6.38269 43.044 6.17438L39.0231 3.85162C38.6599 3.642 38.2281 3.64256 37.8708 3.85181C37.5102 4.06022 37.295 4.43391 37.295 4.85138V9.49397C37.295 9.90984 37.5102 10.2825 37.868 10.4893H37.8681ZM38.4191 4.85138C38.4191 4.83909 38.4212 4.83403 38.4211 4.83403C38.4213 4.83384 38.4243 4.83019 38.4361 4.82344C38.4425 4.81969 38.4458 4.81884 38.4458 4.81875C38.4512 4.81987 38.4563 4.82201 38.4608 4.82503L42.4816 7.14769H42.4817C42.4862 7.14999 42.4903 7.15303 42.4939 7.15669C42.4939 7.15697 42.4957 7.16109 42.4957 7.17112C42.4957 7.18341 42.4936 7.18838 42.4937 7.18838C42.4903 7.19198 42.4863 7.19499 42.4819 7.19728L38.4609 9.51731C38.4514 9.52284 38.4464 9.52359 38.4464 9.52378C38.4459 9.52359 38.4423 9.52275 38.4332 9.5175C38.4237 9.51197 38.4208 9.50822 38.4207 9.50822C38.4207 9.50794 38.4189 9.50391 38.4189 9.49378V4.85119L38.4191 4.85138ZM47.2473 40.079C47.2473 36.1247 44.0303 32.9078 40.0761 32.9078C38.3016 32.9078 36.6768 33.5571 35.4233 34.6286L32.5994 31.8047C32.4936 31.7014 32.3513 31.644 32.2034 31.6449C32.0555 31.6457 31.9139 31.7049 31.8093 31.8095C31.7047 31.9141 31.6456 32.0557 31.6447 32.2036C31.6438 32.3515 31.7012 32.4937 31.8045 32.5996L34.6283 35.4233C33.5552 36.6772 32.9048 38.3032 32.9048 40.079C32.9043 41.0919 33.1197 42.0933 33.5366 43.0164C33.5459 43.0428 33.5579 43.068 33.5713 43.0929C34.7122 45.5452 37.198 47.2502 40.0761 47.2502C41.0748 47.2507 42.0625 47.0414 42.9752 46.6357C42.9971 46.6279 43.018 46.6176 43.0389 46.6069C44.9302 45.745 46.3831 44.0859 46.9665 42.0608C46.9687 42.0519 46.9723 42.0434 46.974 42.0344C47.1551 41.3984 47.247 40.7403 47.2472 40.0791L47.2473 40.079ZM40.0761 34.0318C43.4105 34.0318 46.1231 36.7446 46.1231 40.079C46.1231 40.3201 46.1073 40.5575 46.0797 40.7913L43.0592 37.7708C42.9538 37.6654 42.8108 37.6062 42.6618 37.6062C42.5127 37.6062 42.3698 37.6654 42.2644 37.7708L38.7527 41.2825L37.1836 39.7134C37.1314 39.6612 37.0695 39.6198 37.0013 39.5916C36.9331 39.5633 36.8601 39.5488 36.7863 39.5487C36.7125 39.5487 36.6394 39.5632 36.5712 39.5915C36.503 39.6197 36.4411 39.6611 36.3889 39.7133L34.2844 41.8157C34.1149 41.2524 34.0289 40.6672 34.029 40.079C34.029 36.7446 36.7418 34.0318 40.0761 34.0318ZM34.7499 42.9395L36.786 40.9055L38.355 42.4745L38.3553 42.4747L38.3556 42.475L41.7648 45.8843C41.2162 46.0445 40.6476 46.1259 40.0761 46.1259C37.7759 46.1259 35.772 44.8349 34.7499 42.9395ZM42.8962 45.4258L39.5476 42.0773L42.6619 38.963L45.7808 42.0819C45.2727 43.5247 44.2325 44.7182 42.8962 45.4258ZM39.0637 38.8498C40.0667 38.8498 40.8827 38.0338 40.8827 37.0308C40.8827 36.0277 40.0667 35.2118 39.0637 35.2118C38.0606 35.2118 37.2446 36.0277 37.2446 37.0308C37.2446 38.0338 38.0606 38.8498 39.0637 38.8498ZM39.0637 36.3358C39.4468 36.3358 39.7586 36.6475 39.7586 37.0308C39.7586 37.414 39.4469 37.7258 39.0637 37.7258C38.6804 37.7258 38.3687 37.414 38.3687 37.0308C38.3687 36.6475 38.6805 36.3358 39.0637 36.3358ZM23.0617 7.056V11.4952C23.0617 11.6442 23.1209 11.7872 23.2263 11.8926C23.3317 11.998 23.4746 12.0572 23.6237 12.0572C23.7727 12.0572 23.9157 11.998 24.0211 11.8926C24.1265 11.7872 24.1857 11.6442 24.1857 11.4952V7.05609C25.8779 6.786 27.1754 5.31778 27.1754 3.55191C27.1754 1.59338 25.5821 9.37432e-05 23.6237 9.37432e-05C21.6653 9.37432e-05 20.0746 1.59338 20.0746 3.55191C20.0746 5.31759 21.3709 6.78581 23.0617 7.056ZM23.6237 1.12425C24.9623 1.12425 26.0513 2.21334 26.0513 3.552C26.0513 4.89066 24.9623 5.97694 23.6237 5.97694C22.285 5.97694 21.1987 4.88906 21.1987 3.552C21.1987 2.21494 22.2865 1.12425 23.6237 1.12425ZM43.6983 20.0749C41.9313 20.0749 40.462 21.3712 40.1916 23.0618H35.755C35.606 23.0618 35.463 23.1211 35.3576 23.2265C35.2522 23.3319 35.193 23.4748 35.193 23.6239C35.193 23.7729 35.2522 23.9159 35.3576 24.0213C35.463 24.1267 35.606 24.1859 35.755 24.1859H40.1915C40.4618 25.8781 41.9311 27.1756 43.6983 27.1756C45.6552 27.1756 47.2473 25.5823 47.2473 23.6239C47.2473 21.6654 45.6552 20.0749 43.6983 20.0749ZM43.6983 26.0515C42.3597 26.0515 41.2706 24.9625 41.2706 23.6239C41.2706 22.2852 42.3596 21.1989 43.6983 21.1989C45.0369 21.1989 46.1232 22.2868 46.1232 23.6239C46.1232 24.9609 45.0353 26.0515 43.6983 26.0515ZM24.1857 40.1944V35.7553C24.1857 35.6063 24.1265 35.4633 24.0211 35.3579C23.9157 35.2525 23.7727 35.1933 23.6237 35.1933C23.4746 35.1933 23.3317 35.2525 23.2263 35.3579C23.1209 35.4633 23.0617 35.6063 23.0617 35.7553V40.1945C21.3709 40.4647 20.0746 41.9329 20.0746 43.6986C20.0746 45.657 21.6667 47.2503 23.6237 47.2503C25.5807 47.2503 27.1754 45.657 27.1754 43.6986C27.1754 41.9328 25.878 40.4645 24.1857 40.1944ZM23.6237 46.1261C22.2865 46.1261 21.1987 45.0371 21.1987 43.6985C21.1987 42.3598 22.2865 41.2735 23.6237 41.2735C24.9608 41.2735 26.0513 42.3614 26.0513 43.6985C26.0513 45.0355 24.9623 46.1261 23.6237 46.1261ZM3.54909 27.1755C5.31619 27.1755 6.78563 25.8781 7.05591 24.1858H11.4923C11.6414 24.1858 11.7844 24.1266 11.8898 24.0212C11.9952 23.9158 12.0544 23.7728 12.0544 23.6238C12.0544 23.4747 11.9952 23.3318 11.8898 23.2264C11.7844 23.121 11.6414 23.0618 11.4923 23.0618H7.05581C6.78534 21.371 5.31609 20.0748 3.54909 20.0748C1.59216 20.0748 9.37432e-05 21.6668 9.37432e-05 23.6238C9.37432e-05 25.5807 1.59216 27.1755 3.54909 27.1755ZM3.54909 21.1988C4.88766 21.1988 5.97675 22.2867 5.97675 23.6238C5.97675 24.9608 4.88775 26.0514 3.54909 26.0514C2.21044 26.0514 1.12416 24.9624 1.12416 23.6238C1.12416 22.2851 2.21203 21.1988 3.54909 21.1988ZM32.202 15.6101C32.2758 15.6102 32.3489 15.5957 32.4171 15.5675C32.4853 15.5392 32.5473 15.4978 32.5994 15.4455L35.4233 12.6217C36.6768 13.6933 38.3016 14.3426 40.0762 14.3426C44.0303 14.3426 47.2474 11.1257 47.2474 7.17141C47.2474 3.21713 44.0303 9.37432e-05 40.0762 9.37432e-05C36.122 9.37432e-05 32.9049 3.21703 32.9049 7.17131C32.9049 8.94722 33.5552 10.5731 34.6283 11.8269L31.8046 14.6506C31.726 14.7292 31.6725 14.8294 31.6508 14.9384C31.6291 15.0474 31.6403 15.1604 31.6828 15.2631C31.7253 15.3658 31.7974 15.4536 31.8898 15.5153C31.9822 15.5771 32.0908 15.6101 32.202 15.6101ZM40.0762 1.12416C43.4106 1.12416 46.1232 3.83691 46.1232 7.17131C46.1232 10.5057 43.4105 13.2185 40.0762 13.2185C36.7418 13.2185 34.0291 10.5057 34.0291 7.17131C34.0291 3.83691 36.7418 1.12416 40.0762 1.12416ZM14.648 31.8047L11.824 34.6286C10.5706 33.557 8.94581 32.9078 7.17131 32.9078C3.21713 32.9078 9.37432e-05 36.1247 9.37432e-05 40.079C9.37432e-05 44.0333 3.21703 47.2501 7.17131 47.2501C11.1256 47.2501 14.3425 44.0332 14.3425 40.079C14.3425 38.3031 13.6922 36.6772 12.6191 35.4233L15.4429 32.5996C15.5462 32.4937 15.6036 32.3515 15.6027 32.2036C15.6018 32.0557 15.5427 31.9141 15.4381 31.8095C15.3335 31.7049 15.1919 31.6457 15.044 31.6449C14.8961 31.644 14.7538 31.7014 14.648 31.8047ZM7.17131 46.126C3.83691 46.126 1.12425 43.4133 1.12425 40.079C1.12425 36.7447 3.837 34.0318 7.17131 34.0318C10.5056 34.0318 13.2184 36.7446 13.2184 40.079C13.2184 43.4134 10.5056 46.126 7.17131 46.126ZM33.4817 23.6239C33.4817 18.1897 29.0595 13.7686 23.6238 13.7686C18.1881 13.7686 13.7659 18.1897 13.7659 23.6239C13.7659 26.0437 14.6428 28.2622 16.0948 29.9796C16.1091 30.0019 16.1243 30.0236 16.1419 30.0441C17.249 31.3333 18.6703 32.3148 20.2682 32.8933C20.34 32.9194 20.4121 32.9448 20.4847 32.9692L20.5008 32.9744C20.5787 33.0005 20.6571 33.0256 20.7357 33.0498L20.7468 33.0531C20.8271 33.0776 20.9078 33.1011 20.9889 33.1237L20.9979 33.1261C21.0794 33.1486 21.1613 33.1701 21.2436 33.1906L21.2534 33.193C21.335 33.2133 21.4169 33.2324 21.4992 33.2506L21.512 33.2534C21.5929 33.2711 21.6741 33.2878 21.7557 33.3036L21.7728 33.3068C21.8523 33.322 21.9321 33.3362 22.0122 33.3494L22.0356 33.3533C22.1129 33.3659 22.1905 33.3775 22.2684 33.3883L22.2998 33.3927C22.3746 33.4028 22.4496 33.412 22.5248 33.4203L22.5647 33.4249C22.6364 33.4326 22.7085 33.4393 22.7807 33.4454C22.7972 33.4468 22.8137 33.4485 22.8302 33.4498C22.8987 33.4553 22.9675 33.4597 23.0364 33.4639C23.0562 33.465 23.0759 33.4666 23.0957 33.4676C23.1635 33.4712 23.2314 33.4737 23.2995 33.476C23.3198 33.4766 23.3399 33.4778 23.3602 33.4783C23.4476 33.4806 23.5355 33.4819 23.6235 33.4819C23.7115 33.4819 23.7993 33.4806 23.8868 33.4783C23.9071 33.4778 23.9273 33.4766 23.9474 33.476C24.0156 33.4738 24.0835 33.4713 24.1513 33.4676C24.1711 33.4666 24.1908 33.465 24.2106 33.4639C24.2794 33.4599 24.3482 33.4553 24.4169 33.4498C24.4334 33.4485 24.4498 33.4468 24.4663 33.4454C24.5386 33.4393 24.6106 33.4326 24.6824 33.4249C24.6957 33.4235 24.7089 33.4218 24.7223 33.4203C24.7975 33.4119 24.8726 33.4027 24.9473 33.3927L24.9786 33.3883C25.0641 33.3765 25.1495 33.3635 25.2348 33.3495C25.315 33.3363 25.3949 33.322 25.4745 33.3068L25.4914 33.3037C25.573 33.2879 25.6544 33.2712 25.7354 33.2534L25.7478 33.2507C25.8302 33.2325 25.9123 33.2133 25.994 33.193L26.0035 33.1907C26.1705 33.1491 26.3363 33.1032 26.501 33.0532L26.5114 33.0501C26.5904 33.0258 26.6691 33.0006 26.7473 32.9744L26.7625 32.9695C26.8357 32.9449 26.9084 32.9193 26.9809 32.893C28.578 32.3143 29.9987 31.3331 31.1055 30.0443C31.1227 30.024 31.1384 30.0025 31.1525 29.9799C32.6046 28.2625 33.4815 26.044 33.4815 23.6243L33.4817 23.6239ZM23.6238 14.8927C28.4396 14.8927 32.3576 18.8094 32.3576 23.6239C32.3576 25.4324 31.805 27.1143 30.8598 28.5097C30.1344 27.0735 28.5893 25.9983 26.4845 25.4762C27.3091 24.4708 27.7947 23.1021 27.7947 21.8195C27.7947 19.2182 25.6965 17.8571 23.6238 17.8571C21.5511 17.8571 19.4529 19.2182 19.4529 21.8195C19.4529 23.1023 19.9387 24.4713 20.7636 25.4767C18.6598 25.9988 17.1147 27.0742 16.3884 28.5105C15.41 27.0688 14.888 25.3662 14.89 23.6239C14.89 18.8094 18.808 14.8927 23.6239 14.8927H23.6238ZM27.0342 31.6641L27.0081 31.6752C26.9581 31.6963 26.9078 31.7168 26.8574 31.7369C26.8341 31.7462 26.8107 31.7555 26.7874 31.7646C26.7131 31.7936 26.6383 31.8215 26.5632 31.8483C26.4879 31.8752 26.4123 31.9012 26.3363 31.926C26.3179 31.932 26.2995 31.9381 26.281 31.944C26.2231 31.9625 26.165 31.9804 26.1068 31.9977L26.0771 32.0065C26.0102 32.0261 25.9431 32.045 25.8757 32.063L25.8684 32.0649C25.286 32.2197 24.689 32.3137 24.0872 32.3455C24.0854 32.3455 24.0836 32.3458 24.0819 32.3459C24.0129 32.3496 23.9438 32.3521 23.8745 32.3541C23.8672 32.3543 23.8599 32.3547 23.8526 32.3549C23.7002 32.3588 23.5477 32.3588 23.3953 32.3549C23.3882 32.3547 23.3812 32.3543 23.374 32.3541C23.3046 32.3521 23.2352 32.3494 23.1659 32.3459C23.1644 32.3459 23.1629 32.3457 23.1615 32.3456C22.4869 32.31 21.8188 32.1962 21.1704 32.0065L21.142 31.9981C21.0833 31.9807 21.0248 31.9627 20.9664 31.944L20.9124 31.9265C20.7605 31.8768 20.61 31.823 20.461 31.765C20.4373 31.7558 20.4136 31.7464 20.39 31.737C20.3398 31.717 20.2899 31.6966 20.2402 31.6757L20.213 31.6642C19.056 31.1714 18.0264 30.4359 17.1882 29.5221C17.6644 27.9633 19.3555 26.8178 21.7967 26.4103C22.3347 26.7575 22.9466 26.9678 23.6143 26.9793H23.6336C24.3015 26.9678 24.9137 26.7573 25.4517 26.41C27.8947 26.8177 29.5858 27.9632 30.06 29.5219C29.2217 30.436 28.1918 31.1718 27.0345 31.6645L27.0342 31.6641ZM23.6238 25.8547C21.8793 25.8172 20.5769 23.6963 20.5769 21.8195C20.5769 19.8694 22.1563 18.9813 23.6237 18.9813C25.0911 18.9813 26.6706 19.8695 26.6706 21.8195C26.6706 23.6963 25.3683 25.8172 23.6238 25.8547Z" fill="#C2EE71"/>
</svg>
