<svg width="48" height="48" viewBox="0 0 48 48" fill="none" xmlns="http://www.w3.org/2000/svg">
<path d="M24 0.922852C11.2435 0.922852 0.923096 11.2778 0.923096 23.9998C0.923096 36.6923 11.2062 47.0767 24 47.0767C36.7522 47.0767 47.0769 36.7249 47.0769 23.9998C47.0769 11.2861 36.7627 0.922852 24 0.922852ZM40.2957 37.6069C38.4895 36.6786 36.4425 35.9533 34.4531 35.437C35.3853 32.2563 35.9151 28.6675 35.99 24.9229H45.2107C45.0092 29.5798 43.2864 34.0291 40.2957 37.6069ZM7.7042 37.6069C4.71362 34.029 2.99088 29.5798 2.78928 24.9229H12.01C12.0849 28.6675 12.6147 32.2563 13.5468 35.437C11.5556 35.9545 9.54297 36.6656 7.7042 37.6069ZM7.7042 10.3925C9.54002 11.333 11.5586 12.045 13.5468 12.5626C12.6147 15.7432 12.0849 19.332 12.01 23.0767H2.78928C2.99088 18.4197 4.71362 13.9705 7.7042 10.3925ZM33.8827 10.8062C32.948 8.20057 31.557 5.47934 29.6108 3.52694C33.1333 4.49451 36.3781 6.3619 38.9984 8.97559C37.3967 9.74857 35.5596 10.387 33.8827 10.8062ZM24.9231 11.9891V2.86011C27.1772 3.30181 29.3096 5.35261 31.0069 8.7475C31.3952 9.52399 31.7497 10.3505 32.0698 11.2193C29.717 11.6915 27.3033 11.9387 24.9231 11.9891ZM23.0769 11.9891C20.6765 11.9383 18.2563 11.687 15.9302 11.2193C16.2502 10.3504 16.6049 9.5239 16.993 8.7475C18.6905 5.35261 20.8228 3.30171 23.0769 2.86011V11.9891ZM23.0769 13.8356V23.0767H13.8564C13.9313 19.4646 14.4448 16.0167 15.3459 12.9819C17.7369 13.4768 20.3532 13.7802 23.0769 13.8356ZM23.0769 24.9229V34.164C20.5044 34.2163 17.8552 34.4962 15.346 35.0176C14.4448 31.9828 13.9313 28.5349 13.8564 24.9229H23.0769ZM23.0769 36.0105V45.1394C20.8228 44.6977 18.6905 42.6469 16.993 39.2521C16.6048 38.4756 16.2502 37.649 15.9302 36.7802C18.1666 36.3288 20.6003 36.0629 23.0769 36.0105ZM24.9231 36.0105C27.394 36.0627 29.8178 36.3265 32.0698 36.7802C31.7497 37.649 31.3952 38.4756 31.0069 39.2521C29.3096 42.6469 27.1772 44.6977 24.9231 45.1394V36.0105ZM24.9231 34.164V24.9229H34.1437C34.0688 28.5349 33.5553 31.9828 32.6541 35.0176C30.2771 34.524 27.6432 34.2193 24.9231 34.164ZM24.9231 23.0767V13.8356C27.6775 13.7796 30.2837 13.4718 32.6541 12.9819C33.5553 16.0166 34.0688 19.4646 34.1437 23.0767H24.9231ZM14.1174 10.8062C12.3866 10.3692 10.604 9.75014 9.00159 8.97559C11.6219 6.3619 14.8667 4.49451 18.3894 3.52694C16.4402 5.48221 15.0498 8.20694 14.1174 10.8062ZM14.1174 37.1933C15.0494 39.792 16.44 42.5173 18.3894 44.4726C14.8667 43.505 11.6219 41.6376 9.00159 39.024C10.6064 38.2478 12.3898 37.6317 14.1174 37.1933ZM33.8826 37.1933C35.5367 37.6068 37.3975 38.2492 38.9985 39.024C36.3781 41.6376 33.1333 43.505 29.6108 44.4726C31.5599 42.5172 32.9507 39.7918 33.8826 37.1933ZM35.9901 23.0767C35.9151 19.332 35.3853 15.7432 34.4532 12.5626C36.4758 12.0373 38.5013 11.3128 40.2958 10.3926C43.2864 13.9705 45.0093 18.4198 45.2108 23.0768H35.9901V23.0767Z" fill="#C2EE71"/>
</svg>
