<svg width="80" height="80" viewBox="0 0 80 80" fill="none" xmlns="http://www.w3.org/2000/svg">
<rect width="80" height="80" rx="40" fill="#ECFFCC"/>
<path d="M30.1177 22.4378L32.6748 24.4931L31.8142 27.6588C31.7024 28.0697 31.8528 28.4971 32.1973 28.7474C32.3705 28.8741 32.5795 28.9427 32.7941 28.943C32.9869 28.943 33.1801 28.8873 33.3509 28.7754L36.0958 26.9786L38.8407 28.7754C39.197 29.0087 39.6499 28.9976 39.9944 28.7473C40.3389 28.497 40.4893 28.0697 40.3777 27.6587L39.5169 24.493L42.0741 22.4377C42.406 22.1709 42.5354 21.7368 42.4039 21.3318C42.2723 20.9268 41.9124 20.6517 41.4871 20.631L38.2102 20.4712L37.0457 17.4043C36.8948 17.0068 36.5221 16.75 36.096 16.75C35.6699 16.75 35.297 17.0069 35.146 17.4044L33.9816 20.4714L30.7047 20.6312C30.2794 20.6519 29.9196 20.9269 29.7879 21.332C29.6563 21.7369 29.7857 22.171 30.1177 22.4378ZM34.3706 21.9542C34.5682 21.9446 34.7586 21.8776 34.9186 21.7614C35.0786 21.6452 35.2012 21.4848 35.2714 21.2999L36.0958 19.1283L36.9202 21.2997C36.9902 21.4846 37.1128 21.645 37.2728 21.7612C37.4327 21.8775 37.6231 21.9445 37.8206 21.9541L40.1407 22.0671L38.3304 23.5224C38.1763 23.6462 38.0617 23.8124 38.0005 24.0004C37.9394 24.1884 37.9345 24.3902 37.9864 24.581L38.5957 26.8225L36.6524 25.5504C36.487 25.442 36.2936 25.3843 36.0959 25.3843C35.8982 25.3843 35.7048 25.442 35.5394 25.5504L33.596 26.8226L34.2053 24.5812C34.2573 24.3905 34.2524 24.1887 34.1913 24.0007C34.1302 23.8126 34.0156 23.6465 33.8615 23.5227L32.051 22.0675L34.3706 21.9542ZM23.7181 31.7393L26.4629 33.5361C26.8192 33.7694 27.2721 33.7585 27.6166 33.5081C27.9611 33.2578 28.1116 32.8306 27.9998 32.4196L27.1391 29.2537L29.6962 27.1984C30.0281 26.9316 30.1575 26.4976 30.026 26.0926C29.8943 25.6876 29.5344 25.4125 29.1092 25.3918L25.8323 25.232L24.668 22.1649C24.5171 21.7675 24.1444 21.5106 23.7183 21.5106C23.2922 21.5106 22.9192 21.7675 22.7683 22.165L21.6037 25.2321L18.3269 25.3919C17.9016 25.4126 17.5417 25.6877 17.4101 26.0927C17.2785 26.4978 17.408 26.9319 17.7399 27.1986L20.297 29.2539L19.4363 32.4197C19.3246 32.8306 19.475 33.2578 19.8195 33.5082C19.9927 33.635 20.2017 33.7035 20.4163 33.7038C20.6091 33.7038 20.8023 33.6482 20.9731 33.5362L23.7181 31.7393ZM19.6732 26.8279L21.9933 26.7148C22.1907 26.7052 22.3811 26.6382 22.5411 26.522C22.701 26.4058 22.8235 26.2454 22.8937 26.0606L23.7181 23.8891L24.5426 26.0607C24.6128 26.2455 24.7353 26.4058 24.8953 26.522C25.0552 26.6382 25.2456 26.7052 25.443 26.7148L27.7631 26.8279L25.9527 28.283C25.6377 28.5362 25.5027 28.9517 25.6087 29.3416L26.2181 31.5829L24.2746 30.3107C24.1092 30.2023 23.9158 30.1446 23.7182 30.1447C23.5205 30.1447 23.3271 30.2024 23.1618 30.3107L21.2183 31.5829L21.8277 29.3416C21.8796 29.1508 21.8747 28.949 21.8137 28.761C21.7526 28.573 21.638 28.4069 21.4838 28.283L19.6732 26.8279ZM42.1657 26.0926C42.034 26.4976 42.1635 26.9317 42.4954 27.1985L45.0525 29.2538L44.1919 32.4196C44.0801 32.8305 44.2305 33.2577 44.575 33.5081C44.7482 33.6349 44.9572 33.7034 45.1718 33.7037C45.3646 33.7037 45.5578 33.6481 45.7287 33.5361L48.4735 31.7392L51.2183 33.536C51.5746 33.7693 52.0274 33.7583 52.3719 33.5081C52.7165 33.2579 52.867 32.8306 52.7554 32.4195L51.8947 29.2537L54.4518 27.1984C54.7837 26.9316 54.913 26.4976 54.7815 26.0926C54.6499 25.6876 54.2901 25.4125 53.8648 25.3918L50.588 25.232L49.4235 22.1651C49.2727 21.7675 48.8998 21.5106 48.4736 21.5106C48.0474 21.5106 47.6746 21.7675 47.5238 22.1649L46.3592 25.232L43.0824 25.3918C42.6572 25.4125 42.2973 25.6876 42.1657 26.0926ZM46.7487 26.7149C46.9462 26.7053 47.1366 26.6383 47.2965 26.5221C47.4565 26.4059 47.579 26.2455 47.6491 26.0607L48.4735 23.8891L49.298 26.0604C49.3681 26.2453 49.4906 26.4057 49.6506 26.5219C49.8105 26.6382 50.0009 26.7052 50.1984 26.7148L52.5185 26.8279L50.708 28.2831C50.5539 28.407 50.4393 28.5731 50.3782 28.7611C50.3171 28.9491 50.3122 29.1508 50.3641 29.3416L50.9735 31.5829L49.0299 30.3107C48.8645 30.2024 48.6712 30.1447 48.4735 30.1447C48.2758 30.1448 48.0824 30.2025 47.917 30.3107L45.9737 31.5829L46.5831 29.3416C46.6349 29.1508 46.63 28.949 46.569 28.761C46.5079 28.573 46.3933 28.4069 46.2392 28.283L44.4287 26.8278L46.7487 26.7149ZM53.7178 45.405C50.9106 45.405 48.4025 46.7086 46.7657 48.7417C44.8645 46.8886 42.5187 45.571 39.9803 44.9014C42.4886 43.5241 44.1929 40.8572 44.1929 37.7993C44.1929 33.3347 40.5606 29.7024 36.0959 29.7024C31.6312 29.7024 27.9989 33.3347 27.9989 37.7993C27.9989 40.855 29.7007 43.52 32.206 44.8982C29.8422 45.5193 27.6623 46.6998 25.8503 48.34C23.0587 50.8646 21.3016 54.3074 20.9029 58.0339C20.8916 58.1386 20.9026 58.2444 20.9349 58.3445C20.9673 58.4446 21.0204 58.5368 21.0907 58.6151C21.161 58.6934 21.2471 58.7559 21.3432 58.7988C21.4393 58.8416 21.5433 58.8637 21.6486 58.8637L46.0374 58.8636C47.5928 61.487 50.4531 63.2498 53.7177 63.2498C58.6376 63.2498 62.6402 59.2472 62.6402 54.3273C62.6402 49.4074 58.6377 45.405 53.7178 45.405ZM29.499 37.7993C29.499 34.1617 32.4584 31.2024 36.096 31.2024C39.7336 31.2024 42.693 34.1617 42.693 37.7993C42.693 41.4365 39.7342 44.3957 36.0972 44.3962H36.0948C32.4577 44.3956 29.499 41.4364 29.499 37.7993ZM22.5083 57.3638C23.6159 50.7704 29.3157 45.8969 36.0948 45.8963H36.0971C39.7848 45.8966 43.3305 47.3895 45.9126 50.0088C45.2013 51.2893 44.7953 52.7618 44.7953 54.3275C44.7944 55.3629 44.9746 56.3905 45.3276 57.3638H22.5083ZM53.7178 61.7499C49.6251 61.7499 46.2953 58.4202 46.2953 54.3274C46.2953 50.2347 49.6251 46.905 53.7178 46.905C57.8106 46.905 61.1403 50.2347 61.1403 54.3274C61.1403 58.4202 57.8106 61.7499 53.7178 61.7499ZM58.8587 50.4977C58.4868 50.128 57.9911 49.9262 57.4686 49.9274C57.2111 49.9276 56.9562 49.979 56.7188 50.0785C56.4814 50.178 56.266 50.3237 56.0854 50.5071L52.6419 53.9851L51.3487 52.6919C50.5837 51.927 49.3389 51.9269 48.5737 52.692C47.8088 53.457 47.8088 54.7018 48.5737 55.467L51.2596 58.1527C51.6421 58.5352 52.1445 58.7264 52.647 58.7264C53.1494 58.7264 53.6519 58.5351 54.0344 58.1526C55.0538 57.1333 56.082 56.0904 57.0762 55.0818C57.6728 54.4767 58.2696 53.8715 58.8677 53.2678C59.6277 52.5009 59.6236 51.2582 58.8587 50.4977ZM57.8022 52.212C57.2032 52.8166 56.6057 53.4227 56.0081 54.0287C55.0157 55.0353 53.9894 56.0763 52.9738 57.0919C52.8871 57.1785 52.7695 57.2271 52.647 57.2271C52.5245 57.2271 52.4069 57.1785 52.3202 57.0919L49.6344 54.4063C49.5479 54.3195 49.4993 54.202 49.4993 54.0794C49.4993 53.9569 49.5479 53.8393 49.6344 53.7526C49.7245 53.6625 49.8429 53.6175 49.9613 53.6175C50.0796 53.6175 50.198 53.6625 50.2881 53.7526L52.1141 55.5787C52.1838 55.6484 52.2665 55.7036 52.3575 55.7413C52.4484 55.779 52.546 55.7984 52.6445 55.7984H52.6463C52.7451 55.7981 52.8429 55.7784 52.9341 55.7402C53.0252 55.7021 53.1079 55.6463 53.1774 55.5761L57.1512 51.5626C57.1934 51.5198 57.2437 51.4858 57.2992 51.4626C57.3546 51.4394 57.4142 51.4274 57.4743 51.4274C57.5984 51.4228 57.7135 51.4743 57.8009 51.5613C57.9804 51.7397 57.981 52.0317 57.8022 52.212Z" fill="black"/>
</svg>
