<svg width="21" height="21" viewBox="0 0 21 21" fill="none" xmlns="http://www.w3.org/2000/svg">
<path d="M10.5 21C16.289 21 21 16.289 21 10.5C21 4.71101 16.289 0 10.5 0C4.71095 0 0 4.71101 0 10.5C0 16.289 4.71101 21 10.5 21ZM10.5 1.39998C15.519 1.39998 19.6 5.48096 19.6 10.5C19.6 15.519 15.519 19.6 10.5 19.6C5.48096 19.6 1.39998 15.519 1.39998 10.5C1.39998 5.48096 5.48102 1.39998 10.5 1.39998Z" fill="#464646"/>
<path d="M12.5714 13.7737C12.6772 13.8594 12.8028 13.8994 12.9286 13.8994C13.0142 13.8996 13.0988 13.8804 13.1759 13.8433C13.2531 13.8062 13.3209 13.7521 13.3742 13.6851C13.5714 13.4394 13.5314 13.0794 13.2857 12.8823L10.6428 10.768V6.47083C10.6428 6.15654 10.3857 5.89941 10.0714 5.89941C9.75713 5.89941 9.5 6.15654 9.5 6.47083V11.0423C9.5 11.2166 9.58002 11.3794 9.71428 11.488L12.5714 13.7737Z" fill="#464646"/>
</svg>
