<svg width="20" height="21" viewBox="0 0 20 21" fill="none" xmlns="http://www.w3.org/2000/svg">
<path d="M17.5 1.5H16C16 0.673 15.327 0 14.5 0C13.673 0 13 0.673 13 1.5H7C7 0.673 6.327 0 5.5 0C4.673 0 4 0.673 4 1.5H2.5C1.1215 1.5 0 2.6215 0 4V18.5C0 19.8785 1.1215 21 2.5 21H17.5C18.8785 21 20 19.8785 20 18.5V4C20 2.6215 18.8785 1.5 17.5 1.5ZM14 1.5C14.0058 1.37126 14.061 1.2497 14.1541 1.16064C14.2472 1.07157 14.3711 1.02187 14.5 1.02187C14.6289 1.02187 14.7528 1.07157 14.8459 1.16064C14.939 1.2497 14.9942 1.37126 15 1.5V2.5C14.9942 2.62874 14.939 2.7503 14.8459 2.83936C14.7528 2.92843 14.6289 2.97813 14.5 2.97813C14.3711 2.97813 14.2472 2.92843 14.1541 2.83936C14.061 2.7503 14.0058 2.62874 14 2.5V1.5ZM5 1.5C5.00576 1.37126 5.06095 1.2497 5.15409 1.16064C5.24723 1.07157 5.37113 1.02187 5.5 1.02187C5.62887 1.02187 5.75277 1.07157 5.84591 1.16064C5.93905 1.2497 5.99424 1.37126 6 1.5V2.5C5.99424 2.62874 5.93905 2.7503 5.84591 2.83936C5.75277 2.92843 5.62887 2.97813 5.5 2.97813C5.37113 2.97813 5.24723 2.92843 5.15409 2.83936C5.06095 2.7503 5.00576 2.62874 5 2.5V1.5ZM1 4C1 3.173 1.673 2.5 2.5 2.5H4C4 3.327 4.673 4 5.5 4C6.327 4 7 3.327 7 2.5H13C13 3.327 13.673 4 14.5 4C15.327 4 16 3.327 16 2.5H17.5C18.327 2.5 19 3.173 19 4V6H1V4ZM19 18.5C19 19.327 18.327 20 17.5 20H2.5C1.673 20 1 19.327 1 18.5V7H19V18.5Z" fill="#464646"/>
<path d="M4 12.5H5.5C6.0515 12.5 6.5 12.0515 6.5 11.5V10C6.5 9.4485 6.0515 9 5.5 9H4C3.4485 9 3 9.4485 3 10V11.5C3 12.0515 3.4485 12.5 4 12.5ZM4 10H5.5L5.501 11.5H4V10ZM9.25 12.5H10.75C11.3015 12.5 11.75 12.0515 11.75 11.5V10C11.75 9.4485 11.3015 9 10.75 9H9.25C8.6985 9 8.25 9.4485 8.25 10V11.5C8.25 12.0515 8.6985 12.5 9.25 12.5ZM9.25 10H10.75L10.751 11.5H9.25V10ZM14.5 12.5H16C16.5515 12.5 17 12.0515 17 11.5V10C17 9.4485 16.5515 9 16 9H14.5C13.9485 9 13.5 9.4485 13.5 10V11.5C13.5 12.0515 13.9485 12.5 14.5 12.5ZM14.5 10H16L16.001 11.5H14.5V10ZM4 18H5.5C6.0515 18 6.5 17.5515 6.5 17V15.5C6.5 14.9485 6.0515 14.5 5.5 14.5H4C3.4485 14.5 3 14.9485 3 15.5V17C3 17.5515 3.4485 18 4 18ZM4 15.5H5.5L5.501 17H4V15.5ZM9.25 18H10.75C11.3015 18 11.75 17.5515 11.75 17V15.5C11.75 14.9485 11.3015 14.5 10.75 14.5H9.25C8.6985 14.5 8.25 14.9485 8.25 15.5V17C8.25 17.5515 8.6985 18 9.25 18ZM9.25 15.5H10.75L10.751 17H9.25V15.5ZM14.5 18H16C16.5515 18 17 17.5515 17 17V15.5C17 14.9485 16.5515 14.5 16 14.5H14.5C13.9485 14.5 13.5 14.9485 13.5 15.5V17C13.5 17.5515 13.9485 18 14.5 18ZM14.5 15.5H16L16.001 17H14.5V15.5Z" fill="#464646"/>
</svg>
