<svg width="37" height="47" viewBox="0 0 37 47" fill="none" xmlns="http://www.w3.org/2000/svg">
<path d="M31.7407 30.7483C34.7696 27.4801 36.6245 23.109 36.6245 18.3122C36.6244 8.21484 28.4096 0 18.3122 0C8.21475 0 0 8.21484 0 18.3122C0 23.4787 2.15137 28.1515 5.60437 31.4841L1.09116 41.1779C1.03329 41.3022 1.01058 41.4399 1.0255 41.5762C1.04042 41.7124 1.0924 41.842 1.17578 41.9508C1.25917 42.0596 1.37078 42.1434 1.49848 42.1933C1.62618 42.2431 1.7651 42.2569 1.90013 42.2333L7.43869 41.2656L10.2636 46.1269C10.3324 46.2454 10.4324 46.3428 10.5527 46.4085C10.6731 46.4742 10.8091 46.5056 10.9461 46.4994C11.083 46.4932 11.2156 46.4496 11.3295 46.3733C11.4434 46.297 11.5342 46.1909 11.592 46.0666L16.0529 36.485C16.7934 36.5765 17.5473 36.6244 18.3122 36.6244C19.4123 36.6244 20.4901 36.5267 21.5374 36.3398L24.9042 44.1568C24.9584 44.2827 25.0461 44.3914 25.1577 44.4709C25.2694 44.5505 25.4007 44.5979 25.5374 44.6081C25.6741 44.6182 25.8109 44.5908 25.9331 44.5286C26.0553 44.4664 26.1581 44.3719 26.2303 44.2554L29.195 39.4781L34.703 40.6061C34.8372 40.6338 34.9765 40.624 35.1057 40.5779C35.2348 40.5318 35.3487 40.4512 35.4352 40.3447C35.5217 40.2384 35.5774 40.1105 35.5963 39.9747C35.6152 39.839 35.5965 39.7007 35.5423 39.5748L31.7407 30.7483ZM10.8386 44.1308L8.47303 40.0599C8.39592 39.9274 8.28006 39.8217 8.14104 39.7569C8.00203 39.6922 7.84653 39.6717 7.69547 39.698L3.05747 40.5084L6.77569 32.5222C8.98884 34.3223 11.6287 35.6168 14.5179 36.228L10.8386 44.1308ZM1.5 18.3122C1.5 9.04191 9.04191 1.5 18.3122 1.5C27.5825 1.5 35.1244 9.04191 35.1244 18.3122C35.1244 27.5825 27.5825 35.1244 18.3122 35.1244C9.04191 35.1244 1.5 27.5825 1.5 18.3122ZM28.9837 37.904C28.8335 37.8731 28.6774 37.8891 28.5366 37.9497C28.3957 38.0104 28.2768 38.1129 28.1961 38.2433L25.7135 42.2438L23.0276 36.0078C25.8833 35.2462 28.4667 33.8108 30.5956 31.8818L33.5962 38.8486L28.9837 37.904ZM30.9169 23.4734C30.881 23.1732 30.8475 22.9061 30.8174 22.6663C30.6952 21.6919 30.6338 21.203 30.7021 20.8162C30.7703 20.4294 30.9952 19.9908 31.4433 19.117C31.5535 18.902 31.6763 18.6624 31.8127 18.3927C32.5236 16.9864 32.2292 15.3169 31.0802 14.2385C30.8598 14.0316 30.6624 13.8486 30.4853 13.6841C29.7653 13.0163 29.4039 12.6811 29.2076 12.341C29.0113 12.0009 28.9016 11.5204 28.6833 10.563C28.6295 10.3273 28.5697 10.065 28.5007 9.77063C28.1413 8.23631 26.8426 7.14666 25.2692 7.05909C24.9674 7.04222 24.6986 7.02891 24.4572 7.01691C23.4764 6.96806 22.9841 6.94359 22.615 6.80925C22.246 6.67481 21.8531 6.37725 21.0704 5.78419C20.8545 5.62029 20.6382 5.45707 20.4213 5.29453C19.1597 4.35028 17.4646 4.35028 16.2029 5.29453C15.9608 5.47566 15.7463 5.63822 15.5537 5.78419C14.771 6.37716 14.3781 6.67481 14.0091 6.80925C13.64 6.94359 13.1477 6.96797 12.167 7.01691C11.9256 7.02891 11.6568 7.04231 11.355 7.05909C9.78159 7.14666 8.48297 8.23631 8.12353 9.77063C8.05463 10.0649 7.99472 10.3273 7.941 10.5629C7.72256 11.5203 7.61287 12.0008 7.41656 12.341C7.22025 12.6811 6.85884 13.0162 6.13903 13.684C5.94012 13.8682 5.74177 14.053 5.544 14.2385C4.395 15.3169 4.10063 16.9864 4.81153 18.3927C4.94794 18.6624 5.07066 18.902 5.18091 19.117C5.62903 19.9908 5.85394 20.4294 5.92209 20.8162C5.99034 21.203 5.92894 21.692 5.80678 22.6663C5.77669 22.9062 5.74322 23.1732 5.70731 23.4734C5.52028 25.038 6.36788 26.5061 7.8165 27.1266C8.09438 27.2456 8.34244 27.3502 8.56519 27.444C9.47006 27.8253 9.92428 28.0167 10.2251 28.2692C10.526 28.5217 10.7933 28.9357 11.326 29.7607C11.4571 29.9637 11.6032 30.1897 11.7686 30.4428C12.4349 31.4616 13.537 32.0393 14.6994 32.0393C15.0417 32.0393 15.3894 31.9891 15.7326 31.8854C16.0219 31.7979 16.279 31.7186 16.5099 31.6474C17.4483 31.3578 17.9193 31.2125 18.312 31.2125C18.7047 31.2125 19.1757 31.3578 20.1142 31.6474C20.3451 31.7186 20.6023 31.7979 20.8915 31.8854C22.3999 32.3413 23.993 31.7616 24.8555 30.4427C25.0209 30.1897 25.1669 29.9636 25.2981 29.7606C25.8308 28.9356 26.0981 28.5215 26.399 28.2691C26.6998 28.0167 27.154 27.8253 28.0589 27.4439C28.2817 27.3501 28.5297 27.2455 28.8076 27.1265C30.2563 26.5061 31.1039 25.038 30.9169 23.4734ZM30.1086 18.4325C29.0769 20.4443 29.0478 20.6096 29.3291 22.8529C29.3588 23.0901 29.392 23.3543 29.4275 23.6513C29.5365 24.5633 29.0614 25.3861 28.2172 25.7477C27.9422 25.8654 27.6968 25.9688 27.4764 26.0617C25.393 26.9396 25.2645 27.0475 24.0381 28.9468C23.8928 29.1722 23.7469 29.3972 23.6003 29.6216C23.0977 30.3902 22.2048 30.7152 21.3256 30.4494C21.0394 30.3629 20.7849 30.2844 20.5565 30.2139C18.3961 29.5473 18.2283 29.5472 16.0678 30.2139C15.8393 30.2844 15.5849 30.3629 15.2987 30.4494C14.4194 30.7154 13.5267 30.3902 13.024 29.6216C12.8603 29.3714 12.7159 29.1476 12.5862 28.9468C11.3598 27.0474 11.2312 26.9396 9.14784 26.0617C8.92744 25.9688 8.68209 25.8654 8.40712 25.7477C7.56291 25.3861 7.08778 24.5632 7.19681 23.6513C7.23225 23.3543 7.26544 23.0902 7.29525 22.8529C7.57659 20.6095 7.54744 20.4443 6.51581 18.4325C6.40669 18.2197 6.28528 17.9827 6.15038 17.7158C5.73609 16.8963 5.901 15.9606 6.57066 15.3321C6.78881 15.1273 6.984 14.9463 7.15931 14.7836C8.81672 13.246 8.90063 13.1007 9.4035 10.8964C9.45666 10.6633 9.51591 10.4037 9.58406 10.1125C9.7935 9.21834 10.5214 8.60756 11.4383 8.55656C11.7369 8.53997 12.0028 8.52675 12.2416 8.51484C14.4997 8.40244 14.6574 8.34497 16.4596 6.97969C16.6502 6.83531 16.8624 6.67453 17.1019 6.49528C17.4695 6.22012 17.8909 6.08259 18.3122 6.08259C18.7335 6.08259 19.1548 6.22022 19.5225 6.49528C19.7619 6.67444 19.9741 6.83531 20.1647 6.97969C21.9668 8.34497 22.1245 8.40244 24.3827 8.51484C24.6215 8.52675 24.8874 8.54006 25.1859 8.55656C26.1029 8.60756 26.8308 9.21834 27.0402 10.1125C27.1085 10.4037 27.1676 10.6634 27.2209 10.8965C27.7238 13.1007 27.8077 13.246 29.4652 14.7836C29.6405 14.9463 29.8357 15.1274 30.0537 15.3321C30.7234 15.9606 30.8883 16.8963 30.474 17.7158C30.353 17.9551 30.2312 18.194 30.1086 18.4325ZM24.7465 15.8115L20.7357 15.6159L19.3104 11.8619C19.1519 11.4442 18.76 11.1743 18.3122 11.1743C17.8643 11.1743 17.4724 11.4442 17.3139 11.8619L15.8887 15.6159L11.8779 15.8115C11.4309 15.8332 11.0527 16.1222 10.9143 16.5479C10.7759 16.9736 10.9119 17.4298 11.2608 17.7103L14.3906 20.2259L13.3372 24.1008C13.2198 24.5326 13.3779 24.9817 13.74 25.2447C13.922 25.378 14.1416 25.45 14.3672 25.4504C14.5698 25.4504 14.7728 25.3918 14.9524 25.2743L18.3122 23.0752L21.6719 25.2744C22.0464 25.5196 22.5223 25.5078 22.8845 25.2449C23.2465 24.9817 23.4046 24.5327 23.2871 24.101L22.2337 20.2261L25.3637 17.7105C25.7125 17.43 25.8485 16.9738 25.7101 16.5481C25.5717 16.1224 25.1934 15.8333 24.7465 15.8115ZM17.9081 12.3944C17.9081 12.3943 17.9081 12.3943 17.9081 12.3944V12.3944ZM21.0735 19.2341C20.9115 19.3642 20.791 19.5388 20.7268 19.7364C20.6626 19.934 20.6574 20.146 20.712 20.3465L21.541 23.396L18.897 21.6652C18.7232 21.5514 18.5199 21.4908 18.3122 21.4908C18.1044 21.4907 17.9011 21.5513 17.7273 21.6652L15.0832 23.396L15.9124 20.3461C15.9668 20.1457 15.9615 19.9337 15.8973 19.7362C15.8331 19.5387 15.7127 19.3642 15.5508 19.2341L13.0876 17.2543L16.2438 17.1004C16.4514 17.0904 16.6515 17.02 16.8197 16.8979C16.9879 16.7758 17.1167 16.6072 17.1905 16.4129L18.3122 13.4586L19.4339 16.4131C19.5076 16.6073 19.6364 16.7758 19.8045 16.8979C19.9726 17.02 20.1727 17.0904 20.3802 17.1005L23.5367 17.2544L21.0735 19.2341Z" fill="#525252"/>
</svg>
