<svg width="24" height="24" viewBox="0 0 24 24" fill="none" xmlns="http://www.w3.org/2000/svg">
<g clip-path="url(#clip0_425_4156)">
<path d="M16.8349 4.29007H19.1833V0.00260953H14.9156C14.5596 -0.0122038 10.2198 -0.095158 9.09497 4.19428C9.07868 4.23921 8.71921 5.25935 8.71921 7.64232L4.81689 7.65417V12.151L8.72415 12.1396V24.0006H14.6924V12.15H18.6426V7.64133H14.6924V6.22271C14.6924 5.34083 15.0642 4.29007 16.8349 4.29007ZM17.6551 8.62839V11.162H13.7049V23.0126H9.7117V11.1491L5.80445 11.1605V8.63876L9.72207 8.6274L9.7117 8.12523C9.66035 5.60105 10.0203 4.53943 10.0366 4.48857C11.0074 0.794133 14.7141 0.979793 14.8731 0.989669L18.1958 0.990656V3.30301H16.8349C14.5275 3.30301 13.7054 4.811 13.7054 6.22222V8.62839H17.6551Z" fill="#DADADA"/>
</g>
<defs>
<clipPath id="clip0_425_4156">
<rect width="24" height="24" fill="white"/>
</clipPath>
</defs>
</svg>
