<svg width="80" height="80" viewBox="0 0 80 80" fill="none" xmlns="http://www.w3.org/2000/svg">
<rect width="80" height="80" rx="40" fill="#ECFFCC"/>
<path d="M47.4092 36.064C52.4934 36.064 56.6297 31.9278 56.6297 26.8435C56.6297 21.7593 52.4934 17.623 47.4092 17.623C42.3249 17.623 38.1887 21.7593 38.1887 26.8435C38.1887 31.9278 42.3249 36.064 47.4092 36.064ZM47.4092 19.123C51.6662 19.123 55.1297 22.5865 55.1297 26.8435C55.1297 31.1005 51.6662 34.564 47.4092 34.564C43.1522 34.564 39.6887 31.1005 39.6887 26.8435C39.6887 22.5865 43.1522 19.123 47.4092 19.123ZM49.9749 37.168H45.0699C43.0256 37.1632 41.0115 37.6615 39.2052 38.6189C37.3989 39.5763 35.856 40.9635 34.7124 42.658H18.2499C18.1371 42.6578 18.0257 42.6831 17.924 42.732C17.8224 42.7809 17.7331 42.8522 17.6628 42.9405C17.5926 43.0288 17.5432 43.1318 17.5183 43.2418C17.4935 43.3519 17.4939 43.4662 17.5194 43.576L21.7352 61.7943C21.7735 61.9593 21.8665 62.1066 21.9992 62.212C22.1318 62.3174 22.2963 62.3748 22.4657 62.3748H55.0622C59.1639 62.3748 62.4999 59.038 62.4999 54.937V49.6923C62.4999 42.7863 56.8809 37.168 49.9749 37.168ZM23.0612 60.8755L19.1919 44.158H43.5279L47.3964 60.8755H23.0612ZM60.9999 54.9378C60.9999 58.2123 58.3359 60.8755 55.0622 60.8755H48.9369L47.8577 56.212H52.2174C53.8434 56.212 55.1672 54.844 55.1672 53.1625V49.5715C55.1672 49.3726 55.0882 49.1819 54.9475 49.0412C54.8069 48.9006 54.6161 48.8215 54.4172 48.8215C54.2183 48.8215 54.0275 48.9006 53.8869 49.0412C53.7462 49.1819 53.6672 49.3726 53.6672 49.5715V53.1625C53.6672 54.0175 53.0169 54.712 52.2174 54.712H47.5104L44.8562 43.2393C44.818 43.074 44.7249 42.9265 44.5921 42.8209C44.4593 42.7154 44.2946 42.6579 44.1249 42.658H36.5777C37.61 41.4061 38.9073 40.3988 40.3759 39.7089C41.8446 39.0189 43.448 38.6634 45.0707 38.668H49.9757C56.0544 38.668 61.0007 43.6135 61.0007 49.693L60.9999 54.9378Z" fill="black"/>
</svg>
