<svg width="23" height="23" viewBox="0 0 23 23" fill="none" xmlns="http://www.w3.org/2000/svg">
<path d="M22.1038 20.2234L17.7798 15.8994C19.0984 14.1804 19.8118 12.0738 19.8092 9.90737C19.8092 7.2607 18.7785 4.77337 16.9072 2.90204C15.9894 1.97914 14.8977 1.24744 13.6952 0.749313C12.4927 0.251183 11.2034 -0.00348971 9.90183 3.61148e-05C7.25583 3.61148e-05 4.7685 1.0307 2.8965 2.90204C-0.9655 6.7647 -0.9655 13.05 2.8965 16.9127C3.81426 17.8356 4.90598 18.5673 6.10845 19.0655C7.31093 19.5636 8.60027 19.8183 9.90183 19.8147C12.0978 19.8147 14.1785 19.0954 15.8945 17.7847L20.2185 22.1094C20.4785 22.3694 20.8198 22.5 21.1612 22.5C21.5025 22.5 21.8438 22.3694 22.1038 22.1094C22.2277 21.9856 22.326 21.8385 22.393 21.6767C22.46 21.5149 22.4946 21.3415 22.4946 21.1664C22.4946 20.9912 22.46 20.8178 22.393 20.656C22.326 20.4942 22.2277 20.3472 22.1038 20.2234ZM4.7825 15.0274C1.95917 12.204 1.95983 7.6107 4.7825 4.78737C5.45341 4.11309 6.25137 3.57854 7.1302 3.21465C8.00904 2.85076 8.95131 2.66474 9.9025 2.66737C10.8536 2.66476 11.7958 2.85078 12.6745 3.21467C13.5532 3.57857 14.351 4.11311 15.0218 4.78737C15.6963 5.45818 16.231 6.2561 16.595 7.13495C16.959 8.0138 17.1451 8.95612 17.1425 9.90737C17.1425 11.8414 16.3892 13.6594 15.0218 15.0274C13.6545 16.3954 11.8365 17.1474 9.90183 17.1474C7.9685 17.1474 6.14983 16.394 4.78183 15.0274H4.7825Z" fill="#B9B9B9"/>
</svg>
