<svg width="28" height="23" viewBox="0 0 28 23" fill="none" xmlns="http://www.w3.org/2000/svg">
<path d="M13.6562 22.5C13.002 22.5005 12.3614 22.3131 11.8106 21.96C10.2481 20.9556 7.24312 18.8943 4.70125 16.3775C1.58188 13.2862 0 10.375 0 7.72246C0 5.87934 0.545 4.19059 1.57625 2.83934C2.55417 1.5545 3.93558 0.635662 5.49856 0.230435C7.06155 -0.174792 8.71538 -0.0428852 10.1944 0.604964C11.5181 1.17621 12.6987 2.13934 13.6562 3.41746C14.6138 2.13621 15.7944 1.17309 17.1181 0.604964C18.5971 -0.0428852 20.2509 -0.174792 21.8139 0.230435C23.3769 0.635662 24.7583 1.5545 25.7362 2.83934C26.7675 4.19059 27.3125 5.87934 27.3125 7.72246C27.3125 10.375 25.7306 13.285 22.6112 16.375C20.0694 18.8918 17.0656 20.9531 15.5019 21.9575C14.9514 22.3115 14.3107 22.4998 13.6562 22.5ZM7.29125 1.56621C6.79691 1.56577 6.3047 1.63092 5.8275 1.75996C4.62977 2.08879 3.57274 2.80094 2.81812 3.78746C1.99687 4.86371 1.5625 6.22496 1.5625 7.72496C1.5625 9.94496 2.98812 12.4825 5.80062 15.2675C8.23812 17.6837 11.1425 19.6737 12.655 20.6425C12.9536 20.8332 13.3006 20.9346 13.655 20.9346C14.0094 20.9346 14.3564 20.8332 14.655 20.6425C16.1675 19.6712 19.0694 17.6812 21.5094 15.2675C24.3219 12.4825 25.7475 9.94496 25.7475 7.72496C25.7475 6.22496 25.3131 4.86621 24.4919 3.78746C23.7373 2.80094 22.6802 2.08879 21.4825 1.75996C19.3469 1.17996 16.3462 1.78621 14.3275 5.22746C14.2587 5.34507 14.1603 5.44261 14.0421 5.51039C13.9239 5.57817 13.79 5.61383 13.6538 5.61383C13.5175 5.61383 13.3836 5.57817 13.2654 5.51039C13.1472 5.44261 13.0488 5.34507 12.98 5.22746C11.3937 2.51871 9.19625 1.56621 7.29125 1.56621Z" fill="#DADADA"/>
</svg>
