<svg width="24" height="24" viewBox="0 0 24 24" fill="none" xmlns="http://www.w3.org/2000/svg">
<g clip-path="url(#clip0_425_4149)">
<path d="M17.5034 0H6.49658C2.91431 0 0 2.91431 0 6.49658V17.5036C0 21.0856 2.91431 24 6.49658 24H17.5036C21.0856 24 24 21.0856 24 17.5036V6.49658C24 2.91431 21.0856 0 17.5034 0ZM22.593 17.5036C22.593 20.3098 20.3098 22.593 17.5034 22.593H6.49658C3.69013 22.593 1.407 20.3098 1.407 17.5036V6.49658C1.407 3.69013 3.69013 1.407 6.49658 1.407H17.5036C20.3098 1.407 22.593 3.69013 22.593 6.49658V17.5036Z" fill="#DADADA"/>
<path d="M12.0001 5.438C8.38154 5.438 5.43774 8.38175 5.43774 12.0003C5.43774 15.6189 8.38149 18.5626 12.0001 18.5626C15.6186 18.5626 18.5624 15.6189 18.5624 12.0003C18.5624 8.38175 15.6186 5.438 12.0001 5.438ZM12.0001 17.1556C9.15756 17.1556 6.84474 14.843 6.84474 12.0003C6.84474 9.15781 9.15756 6.845 12.0001 6.845C14.8428 6.845 17.1554 9.15781 17.1554 12.0003C17.1554 14.843 14.8428 17.1556 12.0001 17.1556ZM18.7193 3.10742C17.6499 3.10742 16.7802 3.97737 16.7802 5.0465C16.7802 6.11586 17.6499 6.98577 18.7193 6.98577C19.7887 6.98577 20.6585 6.11586 20.6585 5.04655C20.6585 3.97723 19.7886 3.10742 18.7193 3.10742ZM18.7193 5.57862C18.426 5.57862 18.1872 5.33984 18.1872 5.0465C18.1872 4.75302 18.426 4.51442 18.7193 4.51442C19.0128 4.51442 19.2516 4.75302 19.2516 5.0465C19.2516 5.33984 19.0128 5.57862 18.7193 5.57862Z" fill="#DADADA"/>
</g>
<defs>
<clipPath id="clip0_425_4149">
<rect width="24" height="24" fill="white"/>
</clipPath>
</defs>
</svg>
