<svg width="48" height="48" viewBox="0 0 48 48" fill="none" xmlns="http://www.w3.org/2000/svg">
<g clip-path="url(#clip0_425_2327)">
<path d="M1 45.5H2.72C2.48 44.86 2.45 44.16 2.66 43.5L4.85 36.79C4.95 36.49 4.99 36.18 4.99 35.87V26.32C4.67 26.43 4.34 26.5 3.99 26.5C2.34 26.5 0.990002 25.15 0.990002 23.5V16.49C0.990002 15.56 1.43 14.67 2.17 14.11L6.81 10.57C7.6644 9.9121 8.66102 9.46345 9.72 9.26C8.68 8.33 8 7 8 5.5C8 2.74 10.24 0.5 13 0.5C15.76 0.5 18 2.74 18 5.5C18 7.64 16.64 9.46 14.74 10.17C15.45 10.61 16.1 11.16 16.61 11.82L19.48 15.5H22C23.65 15.5 25 16.85 25 18.5C25 20.15 23.65 21.5 22 21.5H18C17.85 21.5 17.71 21.47 17.57 21.4L16.36 20.83L16.05 24.82L19.14 26.08C19.6923 26.3046 20.1646 26.6894 20.4961 27.1849C20.8277 27.6804 21.0032 28.2638 21 28.86V36.5C21 36.85 20.93 37.19 20.82 37.5H22.97V30.5C22.97 29.95 23.42 29.5 23.97 29.5H34.03V22.5C34.03 21.95 34.48 21.5 35.03 21.5H47C47.55 21.5 48 21.95 48 22.5C48 23.05 47.55 23.5 47 23.5H36.03V30.5C36.03 31.05 35.58 31.5 35.03 31.5H24.97V38.5C24.97 39.05 24.52 39.5 23.97 39.5H14V46.5C14 47.05 13.55 47.5 13 47.5H1C0.450001 47.5 0 47.05 0 46.5C0 45.95 0.450001 45.5 1 45.5ZM4.57 44.11C4.48 44.38 4.51 44.67 4.64 44.92C4.77 45.17 4.99 45.36 5.26 45.44C5.82 45.61 6.41 45.3 6.58 44.75L8.85 37.78C8.95 37.48 8.99 37.17 8.99 36.86V29.16C8.34 28.86 7.64 28.43 6.99 27.76V35.86C6.99 36.38 6.91 36.9 6.75 37.4L4.57 44.11ZM16 5.5C16 3.85 14.65 2.5 13 2.5C11.35 2.5 10 3.85 10 5.5C10 7.15 11.35 8.5 13 8.5C14.65 8.5 16 7.15 16 5.5ZM18.22 19.5H22C22.55 19.5 23 19.05 23 18.5C23 17.95 22.55 17.5 22 17.5H19C18.69 17.5 18.4 17.36 18.21 17.12L16.79 15.3L16.52 18.7L18.22 19.5ZM19 36.5V28.86C19.001 28.6609 18.9425 28.466 18.8321 28.3003C18.7216 28.1346 18.5642 28.0057 18.38 27.93L14.62 26.4C14.22 26.24 13.97 25.83 14 25.4L14.98 12.98C14.3055 12.1538 13.3893 11.5594 12.36 11.28C11.623 11.0847 10.8509 11.0616 10.1036 11.2125C9.35619 11.3633 8.65354 11.6841 8.05 12.15L3.41 15.69C3.28899 15.7832 3.19091 15.9028 3.12331 16.0397C3.05571 16.1767 3.02037 16.3273 3.02 16.48V23.49C3.02029 23.688 3.07916 23.8815 3.1892 24.046C3.29924 24.2106 3.45554 24.339 3.63839 24.4149C3.82124 24.4908 4.02246 24.5109 4.21672 24.4727C4.41097 24.4344 4.58957 24.3396 4.73 24.2C4.9 24.02 5 23.77 5 23.5V17.24C5 16.95 5.13 16.67 5.35 16.48L8.03 14.22C8.23289 14.0489 8.49543 13.9655 8.75985 13.988C9.02428 14.0105 9.26893 14.1371 9.44 14.34C9.61106 14.5429 9.69452 14.8054 9.67202 15.0699C9.64952 15.3343 9.52289 15.5789 9.32 15.75L7 17.71V23.38C7.62 26.2 8.96 27.06 10.31 27.55C10.32 27.55 10.33 27.56 10.34 27.56L16.32 29.55C16.72 29.69 17 30.07 17 30.5V36.5C17 37.05 17.45 37.5 18 37.5C18.55 37.5 19 37.05 19 36.5ZM12 38.5C12 37.95 12.45 37.5 13 37.5H15.18C15.07 37.19 15 36.85 15 36.5V31.22L11 29.89V36.87C11 37.39 10.92 37.91 10.76 38.41L8.49 45.38C8.48 45.42 8.45 45.46 8.44 45.5H12V38.5Z" fill="#525252"/>
</g>
<defs>
<clipPath id="clip0_425_2327">
<rect width="48" height="48" fill="white" transform="matrix(-1 0 0 1 48 0)"/>
</clipPath>
</defs>
</svg>
