<svg width="24" height="24" viewBox="0 0 24 24" fill="none" xmlns="http://www.w3.org/2000/svg">
<g clip-path="url(#clip0_425_4153)">
<path d="M0.366234 23.9031H6.5805V7.56185H0.366234V23.9031ZM1.77248 8.9681H5.17425V22.4968H1.77248V8.9681ZM3.47339 0.0966797C1.55812 0.0966797 0 1.65485 0 3.57007C0 5.48529 1.55812 7.04351 3.47339 7.04351C5.38866 7.04351 6.94683 5.48534 6.94683 3.57007C6.94683 1.6548 5.38861 0.0966797 3.47339 0.0966797ZM1.40625 3.57007C1.40625 2.43026 2.33353 1.50293 3.47339 1.50293C4.61325 1.50293 5.54058 2.43021 5.54058 3.57007C5.54058 4.70993 4.61325 5.63726 3.47339 5.63726C2.33353 5.63726 1.40625 4.70988 1.40625 3.57007ZM23.985 12.6932C23.7638 9.51246 21.1107 7.06141 17.8214 7.06141C16.3501 7.06141 14.9613 7.57291 13.867 8.48051V7.56176H7.91245V23.903H14.1268V14.9656C14.1268 13.9584 14.9462 13.1389 15.9535 13.1389C16.9607 13.1389 17.7802 13.9584 17.7802 14.966L17.7862 23.903H24V12.7083L23.985 12.6932ZM12.7205 22.4968H9.3187V8.96805H12.4607V10.9765L13.5859 10.983L13.795 10.6584C14.6786 9.28662 16.1838 8.46771 17.8214 8.46771C20.4387 8.46771 22.5344 10.4647 22.5923 13.0139L22.5938 22.4968H19.1915L19.1864 14.9656C19.1864 13.183 17.7361 11.7326 15.9535 11.7326C14.1708 11.7326 12.7205 13.183 12.7205 14.9656V22.4968Z" fill="#DADADA"/>
</g>
<defs>
<clipPath id="clip0_425_4153">
<rect width="24" height="24" fill="white"/>
</clipPath>
</defs>
</svg>
