<svg width="221" height="59" viewBox="0 0 221 59" fill="none" xmlns="http://www.w3.org/2000/svg">
<path d="M14.7488 31.4857L24.0823 37.167L23.5412 36.3554L20.0243 31.4857L14.0679 24.6246C12.58 23.0014 10.8215 20.5666 8.92772 18.6728C7.03396 16.7791 7.57956 17.2825 5.68128 16.5085C4.17438 15.8941 2.21839 16.1131 1.08667 17.2825C0.295333 18.1002 0.0331155 18.8503 0.00452379 19.9879C-0.0340604 21.523 0.161419 21.7383 1.08668 22.9638C2.73754 25.1504 5.21869 26.0374 7.57956 27.4277C10.226 28.9861 14.7488 31.4857 14.7488 31.4857Z" fill="url(#paint0_linear_98_163)"/>
<path d="M33.4158 27.3458L24.0823 21.6646L24.6234 22.4762L28.1403 27.3458L34.6287 35.4462C36.5304 37.5064 37.1988 38.9632 39.2278 40.7216C41.2568 42.4801 42.3435 42.958 44.102 43.1189C45.7226 43.2672 45.9462 42.7184 47.0779 41.549C47.8693 40.7313 48.2668 40.0631 48.2953 38.9255C48.3339 37.3904 48.0032 37.0933 47.0779 35.8677C45.4271 33.6811 42.9459 32.7942 40.585 31.4039C37.9386 29.8455 33.4158 27.3458 33.4158 27.3458Z" fill="url(#paint1_linear_98_163)"/>
<path d="M3.38609 16.471C1.35707 16.7415 0.139648 18.7705 0.139648 18.7705C0.139648 18.7705 1.43143 12.4725 4.46824 10.3839C6.87595 8.72799 8.91296 8.16006 11.7727 8.76068C14.4833 9.32996 17.5893 12.8187 17.5893 12.8187L35.58 37.0318C35.58 37.0318 38.4067 41.6146 41.3965 42.4425C43.1275 42.9219 44.4252 43.314 45.9957 42.4425C47.5723 41.5677 48.2952 38.2492 48.2952 38.2492C48.2952 38.2492 48.4337 39.7629 48.16 41.2251C47.8754 42.7453 46.4015 44.8774 45.9957 45.5537C45.5899 46.2301 43.4153 49.2313 41.3965 50.0176C39.5753 50.7269 38.2831 50.5102 36.3916 50.0176C33.4056 49.2398 30.1693 44.8774 30.1693 44.8774L11.5022 21.3406L8.39103 17.5531C8.39103 17.5531 5.4309 16.1983 3.38609 16.471Z" fill="url(#paint2_linear_98_163)"/>
<path d="M14.7488 27.514L24.0823 21.8328L23.5412 22.6444L20.0243 27.514L14.0724 35.4949C12.1707 37.5551 11.2318 39.0119 9.20278 40.7704C7.17376 42.5288 6.88629 42.5047 5.14473 42.6641C3.52416 42.8124 2.21839 42.8866 1.08667 41.7172C0.295333 40.8996 0.0331155 40.1494 0.00452385 39.0119C-0.0340603 37.4768 0.161419 37.2615 1.08668 36.036C2.73754 33.8494 5.21869 32.9624 7.57956 31.5721C10.226 30.0137 14.7488 27.514 14.7488 27.514Z" fill="url(#paint3_linear_98_163)"/>
<path d="M33.4158 31.6539L24.0823 37.3352L24.6234 36.5236L28.1403 31.6539L34.0921 23.6731C35.9939 21.6129 36.7975 19.5331 38.8266 17.7746C40.8556 16.0162 42.3435 16.0418 44.102 15.8809C45.7226 15.7326 45.9462 16.2813 47.0779 17.4507C47.8693 18.2684 48.2668 18.9367 48.2953 20.0742C48.3339 21.6093 48.0032 21.9065 47.0779 23.132C45.4271 25.3186 42.9459 26.2056 40.585 27.5959C37.9386 29.1543 33.4158 31.6539 33.4158 31.6539Z" fill="url(#paint4_linear_98_163)"/>
<path d="M3.38609 42.5288C1.35707 42.2582 0.139648 40.2292 0.139648 40.2292C0.139648 40.2292 1.43143 46.5273 4.46824 48.6159C6.87595 50.2718 8.91296 50.8397 11.7727 50.2391C14.4833 49.6698 17.5893 46.181 17.5893 46.181L35.58 21.968C35.58 21.968 38.4067 17.3852 41.3965 16.5572C43.1275 16.0779 44.4252 15.6858 45.9957 16.5572C47.5723 17.432 48.2952 20.7505 48.2952 20.7505C48.2952 20.7505 48.4337 19.2368 48.16 17.7746C47.8754 16.2545 46.4015 14.1224 45.9957 13.446C45.5899 12.7697 43.4153 9.76845 41.3965 8.98218C39.5753 8.27284 38.2831 8.48954 36.3916 8.98218C33.4056 9.75993 30.1693 14.1224 30.1693 14.1224L11.5022 37.6591L8.39103 41.4466C8.39103 41.4466 5.4309 42.8014 3.38609 42.5288Z" fill="url(#paint5_linear_98_163)"/>
<rect x="53.1636" y="25.6335" width="7.73286" height="7.73286" rx="3.86643" fill="#C2EE71"/>
<path d="M101.615 24.4326C101.615 25.7767 101.449 26.9775 101.116 28.0347C100.784 29.0919 100.331 30.0283 99.7571 30.8439C99.1983 31.6444 98.5489 32.3316 97.8088 32.9055C97.0687 33.4794 96.2909 33.9552 95.4753 34.3327C94.6749 34.6952 93.8593 34.9595 93.0286 35.1257C92.213 35.2918 91.4428 35.3749 90.7178 35.3749L103.019 46H93.9122L81.6332 35.3749H77.3968V29.4846H90.7178C91.4579 29.4242 92.13 29.2731 92.7341 29.0315C93.3533 28.7747 93.882 28.4349 94.3199 28.012C94.773 27.5891 95.1204 27.0832 95.3621 26.4942C95.6037 25.89 95.7246 25.2028 95.7246 24.4326V20.7172C95.7246 20.3849 95.6792 20.1357 95.5886 19.9695C95.5131 19.7883 95.4074 19.6599 95.2715 19.5844C95.1506 19.4938 95.0147 19.4409 94.8637 19.4258C94.7277 19.4107 94.5994 19.4032 94.4785 19.4032H75.0406V46H69.1504V16.4807C69.1504 16.0729 69.2259 15.6878 69.3769 15.3253C69.528 14.9628 69.7319 14.6456 69.9886 14.3738C70.2605 14.1019 70.5776 13.8905 70.9401 13.7395C71.3026 13.5884 71.6953 13.5129 72.1182 13.5129H94.4785C95.7925 13.5129 96.9026 13.7546 97.8088 14.2379C98.715 14.7061 99.4475 15.3026 100.006 16.0276C100.58 16.7374 100.988 17.5077 101.23 18.3384C101.486 19.1691 101.615 19.9469 101.615 20.6718V24.4326ZM112.852 16.4807H106.961V11.1568H112.852V16.4807ZM112.852 46H106.961V21.5101H112.852V46ZM141.714 23.3225C141.956 23.8813 142.016 24.4477 141.895 25.0216C141.789 25.5955 141.533 26.0939 141.125 26.5168L127.509 40.1097H141.669V46H120.418C119.814 46 119.263 45.8339 118.765 45.5016C118.281 45.1542 117.919 44.7162 117.677 44.1876C117.451 43.6288 117.39 43.0624 117.496 42.4885C117.617 41.8995 117.896 41.386 118.334 40.948L131.882 27.4003H117.722V21.5101H139.018C139.607 21.5101 140.143 21.6687 140.627 21.9858C141.125 22.303 141.487 22.7485 141.714 23.3225ZM157.187 46H154.559C153.713 46 152.807 45.8565 151.841 45.5696C150.889 45.2826 149.998 44.8144 149.167 44.165C148.337 43.5004 147.65 42.6471 147.106 41.605C146.562 40.5477 146.29 39.2564 146.29 37.731V11.1568H152.181V37.731C152.181 38.4559 152.407 39.0374 152.86 39.4754C153.313 39.8983 153.88 40.1097 154.559 40.1097H157.187V46ZM186.253 37.8896C186.253 38.7051 186.11 39.5887 185.823 40.5402C185.536 41.4766 185.068 42.3526 184.418 43.1681C183.784 43.9686 182.946 44.6407 181.904 45.1844C180.877 45.7281 179.623 46 178.143 46H167.518C166.702 46 165.819 45.8565 164.867 45.5696C163.931 45.2826 163.055 44.8219 162.239 44.1876C161.439 43.5382 160.767 42.6999 160.223 41.6729C159.679 40.6308 159.407 39.3697 159.407 37.8896C159.407 37.074 159.551 36.1904 159.838 35.2389C160.125 34.2874 160.585 33.4114 161.22 32.611C161.869 31.7954 162.707 31.1157 163.735 30.572C164.777 30.0283 166.038 29.7565 167.518 29.7565H178.143V35.3749H167.518C166.717 35.3749 166.098 35.6241 165.66 36.1225C165.222 36.6058 165.003 37.2099 165.003 37.9349C165.003 38.7051 165.252 39.3093 165.751 39.7473C166.264 40.1701 166.868 40.3816 167.563 40.3816H178.143C178.943 40.3816 179.563 40.1399 180.001 39.6566C180.439 39.1733 180.658 38.5692 180.658 37.8442V29.6205C180.658 28.8503 180.416 28.2386 179.933 27.7855C179.465 27.3324 178.868 27.1058 178.143 27.1058H165.207V21.5101H178.143C178.959 21.5101 179.835 21.6536 180.771 21.9405C181.722 22.2275 182.598 22.6957 183.399 23.3451C184.215 23.9795 184.894 24.8177 185.438 25.8598C185.982 26.8868 186.253 28.1404 186.253 29.6205V37.8896ZM218.446 21.5101L207.866 33.0641L219.783 46H211.672L203.834 37.4591L195.995 46H187.862L199.756 33.0188L189.221 21.5101H197.286L203.788 28.6011L210.336 21.5101H218.446Z" fill="#0D181D"/>
<defs>
<linearGradient id="paint0_linear_98_163" x1="12.0412" y1="37.167" x2="12.0412" y2="16.1745" gradientUnits="userSpaceOnUse">
<stop stop-color="#032537"/>
<stop offset="1" stop-color="#385C4B"/>
</linearGradient>
<linearGradient id="paint1_linear_98_163" x1="36.1903" y1="21.6646" x2="36.1903" y2="43.1426" gradientUnits="userSpaceOnUse">
<stop stop-color="#032537"/>
<stop offset="1" stop-color="#385C4B"/>
</linearGradient>
<linearGradient id="paint2_linear_98_163" x1="-3.09179" y1="50.4719" x2="53.4157" y2="47.4763" gradientUnits="userSpaceOnUse">
<stop stop-color="#BEE5D3"/>
<stop offset="0.845255" stop-color="#23343D"/>
</linearGradient>
<linearGradient id="paint3_linear_98_163" x1="12.0412" y1="21.8328" x2="12.0412" y2="42.746" gradientUnits="userSpaceOnUse">
<stop stop-color="#032537"/>
<stop offset="1" stop-color="#385C4B"/>
</linearGradient>
<linearGradient id="paint4_linear_98_163" x1="36.1903" y1="37.3352" x2="36.1903" y2="15.8571" gradientUnits="userSpaceOnUse">
<stop stop-color="#032537"/>
<stop offset="1" stop-color="#385C4B"/>
</linearGradient>
<linearGradient id="paint5_linear_98_163" x1="-3.09179" y1="8.52783" x2="53.4157" y2="11.5235" gradientUnits="userSpaceOnUse">
<stop stop-color="#BEE5D3"/>
<stop offset="0.845255" stop-color="#23343D"/>
</linearGradient>
</defs>
</svg>
