<svg width="64" height="64" viewBox="0 0 64 64" fill="none" xmlns="http://www.w3.org/2000/svg">
<path d="M55.3833 6.50684H8.61854C6.47524 6.50909 4.42033 7.36137 2.90459 8.87672C1.38885 10.3921 0.536027 12.4467 0.533203 14.59V49.4082C0.535462 51.5518 1.38803 53.6071 2.90384 55.1229C4.41964 56.6387 6.47487 57.4912 8.61854 57.4935H55.3833C57.5266 57.4907 59.5813 56.6379 61.0967 55.1221C62.612 53.6064 63.4643 51.5515 63.4665 49.4082V14.59C63.4632 12.4473 62.6104 10.3933 61.0953 8.87809C59.5801 7.36293 57.5261 6.51022 55.3833 6.50684ZM60.2665 49.4082C60.2654 50.7031 59.7506 51.9448 58.8352 52.8606C57.9197 53.7765 56.6783 54.2918 55.3833 54.2935H8.61854C7.32321 54.2924 6.08127 53.7773 5.16533 52.8614C4.2494 51.9454 3.73433 50.7035 3.7332 49.4082V41.9202L18.434 27.23C19.2703 26.413 20.7295 26.3895 21.5124 27.294L40.7764 48.3116C42.1887 49.8455 44.5481 47.6994 43.1359 46.1484L38.7732 41.3868L44.4799 35.2279C45.2585 34.3447 46.7284 34.3276 47.5455 35.1682L60.2665 47.9148V49.4082ZM60.2665 43.39L49.8132 32.9175C49.3059 32.4107 48.7015 32.0115 48.0364 31.7436C47.3712 31.4758 46.6589 31.3448 45.9419 31.3585C45.225 31.3723 44.5182 31.5305 43.8637 31.8236C43.2093 32.1168 42.6208 32.5389 42.1332 33.0647L36.6057 39.038L23.8697 25.1458C21.9391 22.9207 18.1929 22.8076 16.1727 24.9708L3.7332 37.3954V14.59C3.7349 13.2951 4.25021 12.0537 5.16609 11.1382C6.08196 10.2227 7.32358 9.70797 8.61854 9.70684H55.3833C56.6778 9.70909 57.9185 10.2243 58.8338 11.1396C59.7491 12.0549 60.2643 13.2956 60.2665 14.59V43.39Z" fill="#999999"/>
<path d="M35.9873 15.1724C27.8422 15.3793 27.8486 27.2982 35.983 27.5201C44.126 27.3174 44.1281 15.3814 35.9873 15.1724ZM35.9873 24.3201C32.0748 24.254 32.0812 18.4513 35.983 18.3702V18.3724C39.8934 18.4364 39.8956 24.2518 35.9873 24.3201Z" fill="#999999"/>
</svg>
