<svg width="64" height="64" viewBox="0 0 64 64" fill="none" xmlns="http://www.w3.org/2000/svg">
<path d="M12.5333 47.1995C9.8666 44.2662 8.2666 41.0662 8.2666 35.7329C8.2666 26.3995 14.9333 18.1329 24.2666 13.8662L26.6666 17.3329C17.8666 22.1329 15.9999 28.2662 15.4666 32.2662C16.7999 31.4662 18.6666 31.1995 20.5333 31.4662C25.3333 31.9995 29.0666 35.7329 29.0666 40.7995C29.0666 43.1995 27.9999 45.5995 26.3999 47.4662C24.5333 49.3329 22.3999 50.1329 19.7333 50.1329C16.7999 50.1329 14.1333 48.7995 12.5333 47.1995ZM39.1999 47.1995C36.5333 44.2662 34.9333 41.0662 34.9333 35.7329C34.9333 26.3995 41.5999 18.1329 50.9333 13.8662L53.3333 17.3329C44.5333 22.1329 42.6666 28.2662 42.1333 32.2662C43.4666 31.4662 45.3333 31.1995 47.1999 31.4662C51.9999 31.9995 55.7333 35.7329 55.7333 40.7995C55.7333 43.1995 54.6666 45.5995 53.0666 47.4662C51.4666 49.3329 49.0666 50.1329 46.3999 50.1329C43.4666 50.1329 40.7999 48.7995 39.1999 47.1995Z" fill="#0D181D"/>
</svg>
