<svg width="24" height="24" viewBox="0 0 24 24" fill="none" xmlns="http://www.w3.org/2000/svg">
<g clip-path="url(#clip0_426_1274)">
<path fill-rule="evenodd" clip-rule="evenodd" d="M11.9998 2.20312C6.59803 2.20312 2.20308 6.59808 2.20308 11.9999C2.20308 17.4018 6.59803 21.7968 11.9998 21.7968C17.4016 21.7968 21.7963 17.4018 21.7963 11.9999C21.7964 6.59808 17.4016 2.20312 11.9998 2.20312ZM11.9998 23.2969C8.98256 23.2969 6.14573 22.1217 4.01189 19.988C1.87805 17.8542 0.703125 15.0173 0.703125 11.9999C0.703125 8.98256 1.87805 6.14522 4.01194 4.01198C6.14578 1.87823 8.98256 0.703125 11.9998 0.703125C15.0173 0.703125 17.8541 1.87823 19.9877 4.01198C22.1216 6.14527 23.2968 8.98261 23.2968 11.9999C23.2968 15.0173 22.1216 17.8542 19.9877 19.9879C17.8541 22.1217 15.0173 23.2969 11.9998 23.2969Z" fill="#525252"/>
</g>
<defs>
<clipPath id="clip0_426_1274">
<rect width="24" height="24" fill="white"/>
</clipPath>
</defs>
</svg>
